<svg width="141" height="46" viewBox="0 0 141 46" fill="none" xmlns="http://www.w3.org/2000/svg">
<g>
<path d="M60.815 17.6103C60.3968 18.1169 59.6892 18.4949 59.1262 18.4949C59.0619 18.4949 58.9976 18.4868 58.9574 18.4788C58.9493 18.4466 58.9332 18.3501 58.9332 18.2536C58.9332 17.6103 59.263 16.967 59.6168 16.5649C60.0671 16.0341 60.823 15.6401 61.4503 15.616C61.4663 15.6883 61.4744 15.7768 61.4744 15.8653C61.4744 16.5086 61.201 17.1439 60.815 17.6103ZM61.2573 18.6316C61.6111 18.6316 62.8897 18.6637 63.726 19.87C63.6537 19.9263 62.3831 20.642 62.3831 22.2422C62.3831 24.0918 63.9994 24.7512 64.0477 24.7673C64.0396 24.8075 63.7904 25.6599 63.1953 26.5364C62.6645 27.3004 62.1016 28.0724 61.2573 28.0724C60.4049 28.0724 60.1877 27.5738 59.2147 27.5738C58.2578 27.5738 57.92 28.0885 57.148 28.0885C56.368 28.0885 55.8292 27.3728 55.21 26.5043C54.4863 25.4749 53.9073 23.8827 53.9073 22.3709C53.9073 19.9504 55.4834 18.6637 57.0354 18.6637C57.8557 18.6637 58.5392 19.2025 59.0619 19.2025C59.5524 19.2025 60.3164 18.6316 61.2573 18.6316ZM64.8606 28V16.396H68.9939C71.1732 16.396 72.7172 17.8998 72.7172 20.1032V20.1193C72.7172 22.3226 71.1732 23.8586 68.9939 23.8586H66.308V28H64.8606ZM68.624 17.6827H66.308V22.5719H68.624C70.2806 22.5719 71.2375 21.6632 71.2375 20.1353V20.1193C71.2375 18.5914 70.2806 17.6827 68.624 17.6827ZM75.0097 28.1608C73.3451 28.1608 72.2273 27.1556 72.2273 25.6358V25.6197C72.2273 24.1963 73.3371 23.3037 75.259 23.1911L77.6554 23.0544V22.3548C77.6554 21.3335 76.9879 20.7143 75.8219 20.7143C74.7443 20.7143 74.0688 21.229 73.908 21.9769L73.8919 22.0492H72.5409L72.549 21.9608C72.6696 20.5857 73.8678 19.4759 75.838 19.4759C77.8162 19.4759 79.0546 20.5455 79.0546 22.2181V28H77.6554V26.641H77.6232C77.1327 27.5577 76.1275 28.1608 75.0097 28.1608ZM73.6587 25.6358C73.6587 26.4399 74.3181 26.9466 75.3233 26.9466C76.6421 26.9466 77.6554 26.0379 77.6554 24.8236V24.14L75.4198 24.2767C74.302 24.3411 73.6587 24.8397 73.6587 25.6197V25.6358ZM80.7601 30.8146C80.4867 30.8146 80.1892 30.7824 80.0122 30.7502V29.6083C80.1329 29.6324 80.2937 29.6566 80.4626 29.6566C81.3471 29.6566 81.8377 29.4314 82.1754 28.4825L82.3443 28.008L79.2402 19.6368H80.736L83.0439 26.6008H83.0761L85.3921 19.6368H86.8637L83.5988 28.5227C83.0037 30.123 82.2719 30.8146 80.7601 30.8146Z" fill="white"/>
</g>
</svg>
