<svg width="141" height="46" viewBox="0 0 141 46" fill="none" xmlns="http://www.w3.org/2000/svg">
<g>
<path d="M49.0383 17.1946C49.2369 17.6167 49.3636 18.1291 49.3636 18.8815C49.3636 20.2559 48.4065 22.2719 47.631 23.5545L46.801 16.7725L43.3735 17.1028L44.9435 26.6337H48.8578C50.5717 24.3427 52.683 21.0803 52.683 18.5687C52.683 17.7813 52.5204 17.1581 52.1596 16.5527L49.0383 17.1942V17.1946ZM58.4777 16.5893C54.9055 16.5893 53.1729 19.7424 53.1729 22.7115C53.1729 25.0025 54.2381 26.8352 57.2143 26.8352C58.3875 26.8352 59.5963 26.5785 60.3718 26.1937L60.7864 23.3351C59.6857 23.9031 58.8385 24.1225 57.9542 24.1225C57.1417 24.1225 56.5293 23.6837 56.5293 22.5648C58.37 22.5466 61.5443 21.7774 61.5443 19.2658C61.5443 17.7082 60.4447 16.5893 58.478 16.5893H58.4777ZM56.6015 20.75C56.692 19.6506 57.5209 18.8811 58.1524 18.8811C58.5135 18.8811 58.8197 19.1005 58.8197 19.5405C58.8197 20.4567 57.2318 20.7496 56.6011 20.7496L56.6015 20.75ZM69.1429 16.5897C67.8627 16.5897 66.9602 17.0853 66.2748 17.5432L66.2382 16.7546H63.3334L61.8001 26.6341H65.1561L66.2202 19.7062C66.5089 19.5592 66.9422 19.3577 67.3744 19.3577C67.7001 19.3577 67.9708 19.4674 67.9708 19.9074C67.9708 20.0906 67.9162 20.4209 67.8983 20.5851L66.9602 26.6341H70.2975L71.3261 20.0353C71.3807 19.6879 71.4353 19.1561 71.4353 18.7897C71.4353 17.4693 70.8389 16.5893 69.1429 16.5897ZM84.446 16.5897C83.2017 16.5897 82.2991 16.9752 81.3431 17.6712C80.9994 17.048 80.3145 16.5897 79.268 16.5901C78.0592 16.5901 77.1577 17.0857 76.49 17.5798L76.3999 16.755H73.5306L71.9973 26.6345H75.3522L76.417 19.7066C76.7057 19.5596 77.1383 19.358 77.5712 19.358C77.8954 19.358 78.1665 19.4678 78.1665 19.9634C78.1665 20.091 78.1306 20.2925 78.113 20.4578L77.157 26.6345H80.4943L81.5584 19.7066C81.8661 19.5413 82.2804 19.358 82.695 19.358C83.0203 19.358 83.2914 19.4678 83.2914 19.9634C83.2914 20.091 83.2544 20.2925 83.2368 20.4578L82.2808 26.6345H85.6189L86.6463 20.0357C86.7009 19.6883 86.7555 19.1565 86.7555 18.7901C86.7555 17.4697 86.1595 16.5897 84.446 16.5897ZM92.9831 16.5897C89.2483 16.5897 87.6249 19.5051 87.6249 22.6205C87.6249 24.9846 88.5629 26.873 91.3952 26.873C95.2201 26.873 96.8259 23.6841 96.8259 20.6045C96.8259 18.2765 95.7973 16.5897 92.9827 16.5897H92.9831ZM91.864 24.2517C91.2692 24.2517 91.0164 23.6837 91.0164 22.7664C91.0164 21.5569 91.2867 19.1927 92.6039 19.1927C93.1988 19.1927 93.3973 19.7424 93.3973 20.5493C93.3973 21.7588 93.1087 24.2521 91.8636 24.2521L91.864 24.2517Z" fill="white"/>
</g>
</svg>
