<svg width="141" height="46" viewBox="0 0 141 46" fill="none" xmlns="http://www.w3.org/2000/svg">
<g>
<path d="M68.7541 21.786V26.4348H67.2688V14.9551H71.2064C72.2043 14.9551 73.0552 15.2855 73.7515 15.9463C74.4632 16.6071 74.819 17.4139 74.819 18.3667C74.819 19.3426 74.4632 20.1494 73.7515 20.8025C73.063 21.4556 72.212 21.7783 71.2064 21.7783H68.7541V21.786ZM68.7541 16.3689V20.3722H71.2373C71.8252 20.3722 72.3203 20.1724 72.7071 19.7805C73.1016 19.3887 73.3028 18.9123 73.3028 18.3744C73.3028 17.8442 73.1016 17.3755 72.7071 16.9836C72.3203 16.5764 71.833 16.3766 71.2373 16.3766H68.7541V16.3689Z" fill="white"/>
<path d="M78.7024 18.3203C79.8009 18.3203 80.6673 18.6123 81.3017 19.1963C81.936 19.7802 82.2532 20.5794 82.2532 21.5936V26.4345H80.8375V25.3434H80.7756C80.1645 26.2424 79.3445 26.688 78.3233 26.688C77.4492 26.688 76.722 26.4345 76.1341 25.9196C75.5462 25.4048 75.2522 24.7671 75.2522 23.9987C75.2522 23.1842 75.5616 22.5387 76.1805 22.0624C76.7994 21.5783 77.6271 21.3401 78.656 21.3401C79.5379 21.3401 80.2651 21.5014 80.8298 21.8242V21.4861C80.8298 20.9712 80.6286 20.5409 80.2186 20.1798C79.8086 19.8187 79.329 19.6419 78.7798 19.6419C77.952 19.6419 77.2945 19.9877 76.8148 20.6869L75.5075 19.8725C76.2269 18.8351 77.2945 18.3203 78.7024 18.3203ZM76.7839 24.0217C76.7839 24.4059 76.9464 24.7286 77.279 24.9822C77.6039 25.2358 77.9907 25.3664 78.4316 25.3664C79.0583 25.3664 79.6152 25.1359 80.1026 24.6749C80.59 24.2138 80.8375 23.676 80.8375 23.0536C80.3734 22.6924 79.7313 22.508 78.9035 22.508C78.3001 22.508 77.7973 22.654 77.395 22.9383C76.985 23.238 76.7839 23.5991 76.7839 24.0217Z" fill="white"/>
<path d="M90.3294 18.5742L85.3784 29.8849H83.8467L85.6879 25.9277L82.4233 18.5742H84.0401L86.3918 24.2142H86.4228L88.7126 18.5742H90.3294Z" fill="white"/>
<path d="M62.8462 20.8487C62.8462 20.3677 62.8029 19.9074 62.7224 19.4648H56.4966V22.0005L60.0822 22.0013C59.9367 22.845 59.4687 23.5642 58.7516 24.0437V25.6888H60.8859C62.1322 24.5431 62.8462 22.8496 62.8462 20.8487Z" fill="#4285F4"/>
<path d="M58.7525 24.0432C58.1584 24.4412 57.3933 24.674 56.4983 24.674C54.7693 24.674 53.3026 23.5169 52.7773 21.957H50.5757V23.6536C51.6664 25.8036 53.9083 27.2789 56.4983 27.2789C58.2884 27.2789 59.7922 26.6941 60.8868 25.6875L58.7525 24.0432Z" fill="#34A853"/>
<path d="M52.5699 20.6982C52.5699 20.2602 52.6434 19.8368 52.7772 19.4388V17.7422H50.5756C50.1246 18.6312 49.8708 19.6347 49.8708 20.6982C49.8708 21.7616 50.1254 22.7651 50.5756 23.6541L52.7772 21.9576C52.6434 21.5595 52.5699 21.1361 52.5699 20.6982Z" fill="#FABB05"/>
<path d="M56.4983 16.722C57.4753 16.722 58.3502 17.0563 59.0411 17.7094L60.9325 15.8322C59.7837 14.7695 58.286 14.1172 56.4983 14.1172C53.9091 14.1172 51.6664 15.5925 50.5757 17.7424L52.7773 19.439C53.3026 17.8792 54.7693 16.722 56.4983 16.722Z" fill="#E94235"/>
</g>
</svg>
