<svg width="3650" height="1041" viewBox="0 0 3650 1041" fill="none" xmlns="http://www.w3.org/2000/svg">
<path fill-rule="evenodd" clip-rule="evenodd" d="M2362.8 157.989C2359.22 158.752 2353.64 160.311 2350.38 161.453C2347.12 162.596 2342.58 164.633 2340.28 165.981C2337.98 167.329 2334.12 170.082 2331.7 172.099C2329.28 174.115 2325.66 177.937 2323.66 180.592C2321.66 183.246 2319.02 187.494 2317.79 190.032C2316.57 192.569 2315.18 196.08 2314.72 197.833C2314.26 199.587 2313.19 203.482 2312.34 206.489C2311.29 210.204 2310.8 216.349 2310.8 225.657C2310.8 233.192 2310.53 240.069 2310.19 240.939L2309.59 242.521H2296.13C2288.72 242.521 2281.8 242.987 2280.73 243.556L2278.8 244.591V265.434V286.276L2280.45 287.649C2281.6 288.606 2285.75 289.104 2294.2 289.295C2300.85 289.446 2307.31 289.791 2308.54 290.063L2310.79 290.556L2311.04 376.217L2311.3 461.877L2314.3 462.802C2315.95 463.311 2328.55 463.948 2342.3 464.219C2358.83 464.544 2368.23 464.348 2370.05 463.64L2372.8 462.571V376.662V290.754L2375.05 290.151C2376.29 289.82 2385.03 289.542 2394.48 289.535C2403.94 289.527 2412.82 289.082 2414.23 288.546L2416.8 287.571V265.653V243.735L2415.22 243.128C2414.35 242.794 2404.27 242.521 2392.83 242.521H2372.02L2371.42 239.271C2371.09 237.483 2371.49 231.531 2372.32 226.043L2373.82 216.065L2376.67 212.543C2378.23 210.606 2381.04 208.121 2382.91 207.021L2386.3 205.021L2401.77 204.521L2417.24 204.021L2418.04 199.521C2418.47 197.046 2419.33 193.221 2419.93 191.021C2420.54 188.821 2421.37 183.646 2421.79 179.521C2422.2 175.396 2423.16 170.53 2423.91 168.708L2425.29 165.396L2422.79 163.507C2421.42 162.468 2416.7 160.614 2412.3 159.387L2404.3 157.157L2386.8 156.879C2374.69 156.687 2367.3 157.029 2362.8 157.989ZM1321.3 165.136C1319.1 165.368 1312.84 166.486 1307.38 167.622C1301.93 168.757 1294.36 170.806 1290.56 172.174C1286.77 173.543 1281.11 176.05 1277.98 177.745C1274.86 179.44 1269.96 182.359 1267.11 184.232C1264.25 186.105 1258.82 190.508 1255.03 194.018C1251.24 197.527 1245.87 203.689 1243.11 207.71C1240.35 211.731 1236.9 218.012 1235.45 221.668C1234 225.323 1232.1 231.398 1231.22 235.168L1229.62 242.021L1230.07 256.521L1230.52 271.021L1232.66 276.728C1233.83 279.867 1235.78 284.367 1237 286.728C1238.21 289.089 1240.76 293.271 1242.65 296.021C1244.55 298.771 1247.72 302.733 1249.7 304.826C1251.68 306.919 1256.16 310.653 1259.66 313.122C1263.16 315.592 1269.57 319.392 1273.89 321.566C1278.21 323.741 1287.05 327.289 1293.53 329.451C1300 331.613 1309.35 334.32 1314.3 335.467C1319.25 336.614 1327.35 338.457 1332.3 339.562C1337.25 340.668 1342.87 342.001 1344.8 342.526C1346.72 343.051 1351.67 344.436 1355.8 345.605C1359.92 346.774 1366.9 349.446 1371.3 351.544C1375.82 353.698 1381.35 357.328 1384.02 359.89C1386.61 362.382 1389.44 366.119 1390.31 368.192C1391.17 370.266 1392.37 373.883 1392.96 376.231L1394.03 380.5L1391.71 387.595L1389.38 394.69L1384.29 399.987C1381.49 402.901 1376.78 406.511 1373.82 408.009C1370.87 409.508 1366.39 411.333 1363.87 412.065C1361.36 412.797 1355.7 413.886 1351.3 414.485C1345.42 415.285 1340.64 415.268 1333.3 414.421C1327.8 413.787 1320.22 412.232 1316.46 410.965C1312.71 409.699 1307.18 407.177 1304.18 405.361C1301.19 403.545 1297.29 400.555 1295.52 398.715C1293.75 396.876 1291.51 394.63 1290.55 393.724C1289.59 392.818 1288.8 391.562 1288.8 390.934C1288.8 390.305 1287.97 388.718 1286.95 387.406C1285.93 386.094 1284.79 383.024 1284.41 380.584C1284.03 378.144 1283.01 374.657 1282.14 372.834L1280.57 369.521L1254.94 369.527C1240.25 369.53 1227.7 369.977 1225.55 370.574L1221.8 371.615V376.432C1221.8 379.081 1222.25 383.447 1222.79 386.135C1223.34 388.822 1224.65 393.946 1225.71 397.521C1226.77 401.096 1228.31 405.821 1229.13 408.021C1229.96 410.221 1231.82 414.046 1233.26 416.521C1234.7 418.996 1236.42 421.921 1237.09 423.021C1237.76 424.121 1240.32 427.481 1242.8 430.488C1245.27 433.495 1249.05 437.545 1251.18 439.488C1253.31 441.431 1257.06 444.45 1259.5 446.197C1261.94 447.944 1267.43 451.189 1271.7 453.409C1275.97 455.629 1283.65 458.85 1288.78 460.566C1293.9 462.283 1300.39 464.093 1303.2 464.588C1306 465.083 1313.92 466.162 1320.8 466.985C1327.67 467.808 1336.99 468.491 1341.51 468.501C1346.03 468.512 1354.35 468.065 1360.01 467.509C1365.67 466.952 1372.77 466.007 1375.8 465.409C1378.82 464.811 1384.17 463.656 1387.67 462.844C1391.18 462.031 1395.23 460.893 1396.67 460.315C1398.12 459.736 1402.22 457.878 1405.8 456.185C1409.37 454.492 1414.67 451.625 1417.57 449.815C1420.47 448.004 1425.38 444.16 1428.49 441.272C1431.61 438.384 1435.65 434.446 1437.47 432.521C1439.3 430.596 1440.79 428.519 1440.79 427.906C1440.8 427.293 1441.7 425.647 1442.8 424.248C1443.9 422.85 1444.8 421.059 1444.8 420.268C1444.8 419.478 1445.7 418.016 1446.8 417.021C1447.9 416.026 1448.8 414.256 1448.8 413.089C1448.8 411.921 1449.55 409.901 1450.46 408.6C1451.37 407.299 1452.75 402.361 1453.52 397.628C1454.29 392.894 1455.36 386.321 1455.9 383.021C1456.43 379.721 1456.59 375.221 1456.25 373.021C1455.91 370.821 1454.99 366.802 1454.22 364.089C1453.44 361.377 1452.78 358.002 1452.77 356.589C1452.75 355.177 1451.86 352.221 1450.8 350.021C1449.74 347.821 1448.85 345.381 1448.83 344.6C1448.81 343.818 1448.05 342.352 1447.14 341.343C1446.22 340.333 1444.89 338.498 1444.17 337.264C1443.44 336.03 1442.2 333.671 1441.4 332.021C1440.6 330.371 1438.22 327.212 1436.12 325C1434.02 322.789 1429.6 318.897 1426.3 316.352C1423 313.807 1417.96 310.56 1415.11 309.136C1412.25 307.713 1406.4 305.141 1402.11 303.423C1397.81 301.704 1390.7 299.247 1386.3 297.962C1381.9 296.678 1371.55 294.011 1363.3 292.036C1355.05 290.061 1342.59 286.866 1335.61 284.937C1328.63 283.008 1320.15 280.304 1316.77 278.93C1313.38 277.555 1308.97 275.382 1306.96 274.101C1304.95 272.82 1301.9 270.478 1300.19 268.896C1298.48 267.315 1296.12 264.393 1294.94 262.403L1292.8 258.785V250.706V242.627L1295.22 238.065C1296.56 235.556 1299.52 231.758 1301.81 229.625C1304.1 227.492 1308.07 224.602 1310.64 223.204C1313.21 221.806 1318.79 219.73 1323.04 218.591C1328.39 217.157 1333.77 216.526 1340.53 216.536C1346.9 216.546 1353.03 217.239 1358.13 218.524C1362.43 219.609 1367.91 221.362 1370.3 222.42C1372.69 223.477 1376.73 226.257 1379.27 228.596C1381.8 230.935 1385.11 234.688 1386.62 236.935C1388.13 239.182 1389.91 242.89 1390.59 245.174C1391.27 247.458 1392.68 250.383 1393.72 251.674L1395.63 254.021H1420.96H1446.3L1449.67 252.185L1453.03 250.348L1452.39 245.493C1452.04 242.822 1451.08 239.051 1450.27 237.111C1449.46 235.172 1448.8 232.558 1448.79 231.303C1448.79 230.048 1447.89 227.671 1446.8 226.021C1445.71 224.371 1444.81 222.417 1444.81 221.679C1444.8 220.94 1443.9 219.192 1442.8 217.794C1441.7 216.395 1440.8 214.257 1440.8 213.041C1440.8 211.826 1439.9 210.016 1438.8 209.021C1437.7 208.026 1436.8 206.689 1436.8 206.05C1436.8 205.412 1433.28 201.289 1428.98 196.888C1424.68 192.487 1417.36 186.375 1412.73 183.307C1408.09 180.238 1400.3 176.081 1395.4 174.069C1390.51 172.057 1381.74 169.272 1375.9 167.881L1365.3 165.351L1345.3 165.033C1334.3 164.858 1323.5 164.904 1321.3 165.136ZM1728.05 168.141L1726.8 168.688V315.545C1726.8 417.589 1727.12 462.602 1727.86 463.056C1728.44 463.415 1741.15 463.743 1756.11 463.784C1774.47 463.835 1784.2 463.487 1786.06 462.711L1788.82 461.563L1788.56 316.578L1788.3 171.592L1786.52 169.807L1784.73 168.021L1757.02 167.808C1741.77 167.691 1728.74 167.841 1728.05 168.141ZM1560.8 241.56C1555.57 242.578 1548.59 244.289 1545.29 245.364C1541.98 246.438 1535.46 249.097 1530.79 251.273C1526.12 253.449 1519.81 257.207 1516.76 259.625C1513.71 262.043 1509.41 266.046 1507.21 268.521C1505.01 270.996 1502.35 274.371 1501.3 276.021C1500.26 277.671 1498.38 280.932 1497.13 283.268C1495.88 285.604 1493.91 290.648 1492.74 294.477C1491.58 298.305 1490.89 301.854 1491.2 302.364C1491.52 302.873 1494.59 303.77 1498.04 304.356C1501.48 304.942 1509.47 305.972 1515.8 306.643C1522.12 307.314 1530.94 307.899 1535.39 307.942C1540.38 307.991 1544.41 307.512 1545.89 306.695C1547.22 305.965 1549.31 303.797 1550.55 301.875C1551.79 299.954 1552.8 298.01 1552.8 297.555C1552.8 297.1 1554.39 295.334 1556.33 293.631C1558.27 291.927 1561.66 289.613 1563.86 288.488C1566.07 287.363 1571.74 285.725 1576.47 284.848L1585.07 283.252L1592.19 284.474C1596.1 285.146 1601.5 286.661 1604.18 287.84C1606.86 289.019 1610.93 291.887 1613.23 294.213C1616.17 297.2 1617.91 300.167 1619.16 304.312L1620.91 310.181L1619.74 314.852C1618.95 317.961 1617.45 320.495 1615.25 322.431C1613.43 324.03 1609.43 326.069 1606.36 326.96C1603.29 327.852 1595.95 329.212 1590.04 329.982C1584.13 330.752 1574.8 331.897 1569.3 332.525C1563.8 333.153 1554.57 334.551 1548.8 335.631C1543.02 336.711 1534.7 338.766 1530.3 340.197C1525.9 341.629 1520.05 343.924 1517.3 345.299C1514.55 346.673 1509.77 349.513 1506.68 351.609C1503.59 353.704 1499.2 357.532 1496.93 360.114C1494.65 362.697 1491.42 367.332 1489.75 370.415C1488.08 373.498 1485.83 379.368 1484.75 383.459C1483.39 388.641 1482.8 394.187 1482.8 401.741C1482.8 409.118 1483.28 413.733 1484.3 416.175C1485.12 418.15 1485.8 420.854 1485.8 422.185C1485.8 423.516 1487.18 427.398 1488.87 430.813C1490.56 434.227 1492.62 438.298 1493.46 439.859C1494.31 441.419 1497.81 445.469 1501.26 448.859C1504.71 452.248 1510.31 456.51 1513.72 458.33C1517.12 460.15 1522.7 462.542 1526.1 463.645C1529.51 464.747 1536.12 466.288 1540.8 467.068C1545.47 467.848 1552.78 468.494 1557.03 468.504C1561.28 468.513 1568.03 468.012 1572.03 467.389C1576.03 466.767 1582.4 465.334 1586.19 464.205C1590.96 462.786 1595.59 460.34 1601.19 456.287C1605.65 453.062 1610.02 449.882 1610.89 449.222C1611.77 448.561 1612.98 447.074 1613.6 445.917C1614.21 444.759 1616.13 443.128 1617.86 442.291C1619.58 441.454 1621.8 439.548 1622.78 438.055L1624.56 435.341L1624.97 448.541L1625.38 461.741L1627.34 463.213L1629.3 464.686L1654.01 464.344C1672.11 464.093 1679.05 463.666 1679.97 462.746L1681.23 461.49L1680.92 381.256L1680.61 301.021L1679.32 297.919C1678.61 296.213 1677.7 292.876 1677.3 290.504C1676.9 288.132 1675.48 284.149 1674.15 281.653C1672.83 279.157 1671.08 276.383 1670.27 275.489C1669.46 274.595 1668.8 273.359 1668.8 272.742C1668.8 272.125 1668.2 271.261 1667.46 270.821C1666.72 270.381 1665.71 269.289 1665.21 268.394C1664.71 267.499 1661.63 264.497 1658.36 261.723C1655.1 258.95 1648.58 254.662 1643.86 252.196C1639.15 249.73 1631.47 246.503 1626.8 245.026C1622.12 243.549 1614.47 241.708 1609.8 240.934C1604.83 240.112 1594.87 239.566 1585.8 239.619C1575.14 239.681 1567.33 240.287 1560.8 241.56ZM1910.97 241.121C1906.39 241.889 1899.19 243.691 1894.97 245.126C1890.75 246.561 1883.7 249.516 1879.31 251.693C1874.91 253.869 1868.94 257.438 1866.05 259.623C1863.15 261.808 1858.07 266.325 1854.74 269.66C1851.42 272.995 1846.57 278.941 1843.98 282.872C1841.39 286.804 1837.63 293.396 1835.63 297.521C1833.63 301.646 1831.47 307.046 1830.82 309.521C1830.18 311.996 1829.03 315.884 1828.27 318.16C1827.52 320.436 1826.37 329.185 1825.73 337.6L1824.56 352.902L1825.76 368.338C1826.48 377.628 1827.73 386.166 1828.88 389.778C1829.94 393.08 1830.8 396.4 1830.8 397.155C1830.8 397.91 1831.7 400.207 1832.8 402.26C1833.9 404.312 1834.8 406.73 1834.8 407.634C1834.8 408.537 1835.43 409.8 1836.2 410.44C1836.97 411.079 1837.9 412.787 1838.26 414.233C1838.63 415.68 1839.8 417.972 1840.86 419.327C1841.93 420.682 1842.8 422.198 1842.8 422.696C1842.8 423.194 1843.81 425.015 1845.05 426.743C1846.29 428.47 1847.97 430.637 1848.8 431.559C1849.62 432.48 1852.74 435.833 1855.72 439.009C1858.7 442.185 1864.78 447.157 1869.23 450.059C1873.68 452.96 1880.01 456.545 1883.31 458.025C1886.6 459.505 1891.77 461.509 1894.8 462.478C1897.82 463.447 1902.77 464.748 1905.8 465.37C1908.82 465.993 1914.54 466.956 1918.49 467.511C1922.45 468.067 1930.14 468.521 1935.58 468.521C1941.03 468.521 1949.27 468.057 1953.89 467.489C1958.52 466.922 1963.87 466.054 1965.8 465.56C1967.72 465.067 1972.67 463.678 1976.8 462.474C1980.92 461.27 1987.67 458.627 1991.8 456.601C1995.92 454.575 2002.67 450.415 2006.8 447.357C2010.92 444.3 2015.87 439.878 2017.8 437.532C2019.72 435.185 2021.97 432.52 2022.8 431.609C2023.62 430.699 2025.54 428.145 2027.05 425.934C2028.56 423.723 2029.8 421.389 2029.8 420.748C2029.8 420.107 2030.68 417.881 2031.75 415.802C2032.83 413.722 2033.81 409.664 2033.93 406.783C2034.05 403.901 2033.92 401.31 2033.64 401.024C2033.35 400.738 2029.56 400.095 2025.21 399.595C2020.86 399.095 2009.64 398.128 2000.27 397.448L1983.25 396.21L1981.01 397.408C1979.78 398.068 1977.71 400.275 1976.41 402.314C1975.11 404.353 1972.33 407.77 1970.24 409.909C1968.15 412.047 1963.61 415.117 1960.16 416.732C1956.71 418.347 1950.17 420.263 1945.63 420.99L1937.37 422.313L1928.33 421.031C1923.37 420.326 1917.27 418.951 1914.8 417.974C1912.32 416.998 1908.27 414.74 1905.8 412.957C1903.32 411.174 1899.72 407.938 1897.8 405.765C1895.87 403.593 1893.34 400.493 1892.18 398.878C1891.01 397.263 1889.71 394.391 1889.29 392.496C1888.88 390.601 1887.97 388.144 1887.28 387.036C1886.59 385.928 1885.74 381.596 1885.38 377.411L1884.74 369.801L1889.22 369.187C1891.68 368.85 1924.66 368.553 1962.5 368.527C2000.34 368.502 2032.42 368.192 2033.8 367.839C2035.17 367.485 2036.63 366.707 2037.04 366.109C2037.45 365.51 2037.53 358.271 2037.23 350.021C2036.92 341.771 2036.05 332.096 2035.29 328.521C2034.53 324.946 2033.63 319.475 2033.29 316.364C2032.95 313.253 2031.81 308.995 2030.74 306.903C2029.67 304.81 2028.8 302.348 2028.8 301.432C2028.8 300.516 2028.12 299.206 2027.3 298.521C2026.47 297.836 2025.8 296.531 2025.8 295.621C2025.8 294.711 2025.02 292.853 2024.06 291.494C2023.1 290.134 2021.56 287.671 2020.64 286.021C2019.73 284.371 2018.25 281.494 2017.38 279.628C2016.5 277.761 2012.29 272.811 2008.03 268.628C2003.76 264.444 1997.8 259.391 1994.79 257.399C1991.77 255.406 1986.6 252.423 1983.3 250.768C1980 249.114 1973.02 246.396 1967.8 244.727C1962.57 243.058 1954.78 241.204 1950.48 240.607C1946.17 240.01 1937.4 239.567 1930.98 239.623C1924.55 239.679 1915.55 240.353 1910.97 241.121ZM2140.3 240.976C2135.9 241.668 2128.71 243.226 2124.32 244.438C2119.93 245.65 2112.53 248.427 2107.87 250.61C2103.21 252.792 2096.23 256.972 2092.35 259.899C2088.08 263.122 2083.73 267.548 2081.31 271.121C2079.12 274.366 2077.05 277.246 2076.71 277.521C2076.38 277.796 2074.94 280.721 2073.52 284.021C2072.1 287.321 2070.17 294.306 2069.23 299.543L2067.52 309.066L2069.16 315.607C2070.06 319.205 2070.8 323.245 2070.81 324.585C2070.81 325.925 2071.71 328.371 2072.8 330.021C2073.89 331.671 2074.79 333.561 2074.79 334.221C2074.8 334.881 2076.21 337.508 2077.93 340.059C2079.65 342.61 2082.91 346.5 2085.18 348.703C2087.45 350.907 2091.63 354.219 2094.49 356.064C2097.34 357.909 2101.47 360.331 2103.65 361.446C2105.84 362.561 2111.81 364.864 2116.93 366.564C2122.05 368.264 2128.5 370.124 2131.27 370.697C2134.03 371.271 2138.1 372.097 2140.3 372.533C2142.5 372.97 2148.12 374.089 2152.8 375.021C2157.47 375.953 2163.1 377.097 2165.3 377.564C2167.5 378.03 2171.1 378.844 2173.3 379.373C2175.5 379.902 2178.66 380.767 2180.33 381.295C2181.99 381.822 2185.35 383.27 2187.78 384.512C2190.22 385.754 2193.66 388.265 2195.43 390.092C2197.7 392.429 2198.87 394.775 2199.35 398.001C2199.73 400.523 2199.75 404.018 2199.4 405.768C2199.05 407.518 2197.76 410.451 2196.53 412.286C2195.05 414.503 2191.95 416.75 2187.3 418.98C2182.37 421.342 2177.71 422.67 2171.58 423.462L2162.85 424.589L2156.08 423.427C2152.35 422.788 2146.82 421.366 2143.8 420.267C2140.77 419.168 2136.72 417.13 2134.8 415.739C2132.87 414.348 2130.49 412.267 2129.5 411.115C2128.51 409.963 2126.53 406.623 2125.1 403.693C2123.66 400.763 2121.48 397.702 2120.24 396.891L2117.99 395.417L2098.65 396.463C2088.01 397.038 2075.95 397.738 2071.86 398.018C2067.5 398.316 2064.09 399.046 2063.64 399.775C2063.21 400.46 2063.14 402.794 2063.49 404.962C2063.83 407.129 2064.72 410.054 2065.45 411.462C2066.19 412.869 2066.79 414.85 2066.79 415.863C2066.8 416.877 2067.7 418.85 2068.8 420.248C2069.9 421.647 2070.8 423.56 2070.8 424.501C2070.8 425.441 2071.7 427.026 2072.8 428.021C2073.9 429.016 2074.8 430.335 2074.8 430.952C2074.8 431.568 2077.84 435.302 2081.55 439.25C2085.26 443.198 2091.22 448.28 2094.8 450.543C2098.37 452.807 2104.22 456.021 2107.8 457.687C2111.37 459.353 2117 461.528 2120.3 462.521C2123.6 463.514 2128.55 464.804 2131.3 465.389C2134.05 465.974 2139.54 466.918 2143.49 467.487C2147.45 468.056 2155.55 468.517 2161.49 468.513C2167.44 468.508 2177.02 467.837 2182.8 467.022C2188.57 466.206 2195.1 465.115 2197.3 464.596C2199.5 464.077 2203.1 463.195 2205.31 462.635C2207.52 462.076 2211.12 460.878 2213.31 459.974C2215.5 459.07 2218.87 457.612 2220.8 456.734C2222.72 455.856 2227.44 453.09 2231.28 450.587C2235.12 448.083 2240.86 443.374 2244.03 440.122C2247.2 436.869 2249.8 433.704 2249.8 433.087C2249.8 432.47 2250.7 431.195 2251.8 430.253C2252.9 429.311 2253.8 427.784 2253.8 426.86C2253.8 425.935 2254.51 424.39 2255.38 423.427C2256.26 422.464 2257.22 419.729 2257.52 417.349C2257.83 414.968 2258.76 411.672 2259.59 410.023C2260.67 407.885 2261.11 403.87 2261.11 396.021V385.017L2259.45 381.819C2258.54 380.06 2257.78 377.81 2257.76 376.821C2257.74 375.831 2256.49 372.447 2254.98 369.301C2253.48 366.155 2249.82 361.061 2246.85 357.981C2243.88 354.901 2239.58 351.088 2237.28 349.506C2234.98 347.925 2230.64 345.506 2227.63 344.13C2224.63 342.755 2219.72 340.723 2216.73 339.613C2213.74 338.504 2208.6 336.887 2205.3 336.021C2202 335.155 2195.02 333.594 2189.8 332.553C2184.57 331.511 2176.25 329.955 2171.3 329.094C2166.35 328.233 2158.03 326.382 2152.81 324.981C2147.59 323.579 2141.52 321.367 2139.31 320.066C2137.11 318.764 2133.97 316.306 2132.36 314.603L2129.41 311.507L2129.36 304.706L2129.3 297.905L2132.17 294.463C2133.75 292.57 2136.9 289.86 2139.17 288.442C2141.44 287.024 2144.83 285.336 2146.7 284.692C2148.57 284.048 2155.36 283.521 2161.8 283.521C2168.24 283.521 2175.03 284.009 2176.9 284.606C2178.77 285.202 2182.1 286.576 2184.3 287.659C2186.5 288.741 2189.42 290.626 2190.8 291.846C2192.17 293.067 2194.46 295.631 2195.87 297.543C2197.29 299.456 2198.71 301.738 2199.03 302.613C2199.35 303.489 2201.34 305.03 2203.46 306.036L2207.3 307.867L2223.3 306.679C2232.1 306.026 2241.37 305.498 2243.9 305.506C2246.43 305.514 2249.88 305.04 2251.57 304.451C2253.26 303.863 2254.9 302.705 2255.22 301.879C2255.53 301.052 2255.34 299.538 2254.8 298.514C2254.25 297.49 2253.8 295.865 2253.8 294.902C2253.8 293.94 2252.97 291.323 2251.95 289.087C2250.94 286.851 2249.57 283.896 2248.91 282.521C2248.26 281.146 2247.17 279.121 2246.49 278.021C2245.81 276.921 2244.09 274.221 2242.67 272.021C2241.25 269.821 2238.1 266.211 2235.69 263.998C2233.28 261.785 2229.72 258.809 2227.8 257.384C2225.87 255.96 2221.74 253.412 2218.61 251.723C2215.48 250.034 2208.54 247.25 2203.19 245.537C2197.84 243.824 2189.15 241.772 2183.88 240.978C2178.61 240.183 2168.45 239.575 2161.3 239.626C2154.15 239.677 2144.7 240.285 2140.3 240.976ZM2521.53 240.968C2517.25 241.722 2510.5 243.323 2506.53 244.526C2502.55 245.728 2496.01 248.227 2491.99 250.078C2487.97 251.93 2481.55 255.527 2477.72 258.073C2473.89 260.618 2467.92 265.473 2464.44 268.861C2460.96 272.249 2456.55 277.496 2454.63 280.521C2452.72 283.546 2450.3 287.371 2449.27 289.021C2448.24 290.671 2446.45 293.821 2445.29 296.021C2444.13 298.221 2442.25 302.721 2441.11 306.021C2439.97 309.321 2438.24 314.721 2437.26 318.021C2436.14 321.761 2435.21 329.481 2434.76 338.521C2434.37 346.496 2434.38 359.791 2434.78 368.065C2435.19 376.432 2436.04 384.109 2436.71 385.361C2437.38 386.6 2438.33 390.13 2438.83 393.205C2439.33 396.281 2440.43 399.558 2441.27 400.488C2442.11 401.418 2442.8 403.043 2442.81 404.1C2442.81 405.156 2443.71 407.371 2444.8 409.021C2445.89 410.671 2446.79 412.813 2446.79 413.781C2446.8 414.749 2447.7 416.311 2448.8 417.253C2449.9 418.195 2450.8 419.77 2450.8 420.753C2450.8 421.736 2451.7 423.311 2452.8 424.253C2453.9 425.195 2454.8 426.452 2454.8 427.048C2454.8 427.643 2458.31 431.729 2462.6 436.129C2466.89 440.528 2474.2 446.607 2478.85 449.637C2483.5 452.668 2490 456.42 2493.3 457.975C2496.6 459.531 2501.32 461.458 2503.8 462.258C2506.27 463.058 2509.87 464.128 2511.8 464.637C2513.72 465.145 2519.54 466.227 2524.71 467.041C2529.89 467.855 2538.03 468.521 2542.8 468.521C2547.58 468.521 2555.27 468.045 2559.89 467.464C2564.52 466.883 2571.12 465.735 2574.56 464.914C2578.01 464.092 2583.84 462.285 2587.53 460.898C2591.22 459.511 2597.35 456.721 2601.16 454.698C2604.97 452.676 2611.89 447.76 2616.55 443.775C2621.2 439.789 2626.29 434.839 2627.84 432.775C2629.4 430.71 2631.33 428.278 2632.14 427.37C2632.94 426.462 2633.9 424.774 2634.27 423.62C2634.63 422.465 2635.26 421.521 2635.66 421.521C2636.06 421.521 2637.88 418.484 2639.69 414.771C2641.51 411.058 2643.63 406.827 2644.4 405.367C2645.17 403.907 2645.8 401.706 2645.8 400.476C2645.8 399.246 2646.65 396.391 2647.69 394.131C2648.74 391.87 2650.11 386.421 2650.76 382.021C2651.4 377.621 2652.38 371.096 2652.93 367.521C2653.48 363.946 2653.66 355.621 2653.33 349.021C2653.01 342.421 2651.82 332.163 2650.69 326.225C2649.56 320.287 2648 314.212 2647.22 312.725C2646.45 311.238 2645.81 309.339 2645.81 308.506C2645.8 307.673 2644.9 305.312 2643.8 303.26C2642.7 301.207 2641.8 299.043 2641.8 298.449C2641.8 297.856 2639.93 294.163 2637.64 290.244C2635.35 286.324 2631.56 280.621 2629.23 277.569C2626.89 274.518 2623.25 270.396 2621.14 268.41C2619.03 266.424 2615 263.022 2612.2 260.85C2609.39 258.677 2603.54 255.05 2599.2 252.79C2594.85 250.529 2588.82 247.754 2585.8 246.623C2582.77 245.491 2576.7 243.611 2572.3 242.445L2564.3 240.324L2546.8 239.96C2534.89 239.713 2526.81 240.035 2521.53 240.968ZM2791.3 240.691C2788.55 241.212 2783.14 243.154 2779.28 245.008C2775.12 247.001 2770.63 250.134 2768.28 252.674C2766.09 255.037 2763.07 258.782 2761.57 260.996C2760.07 263.21 2758.83 265.532 2758.82 266.156C2758.81 266.78 2757.74 267.983 2756.45 268.828C2755.16 269.674 2752.8 272.988 2751.2 276.193L2748.3 282.021L2747.8 262.521L2747.3 243.021L2719.12 242.756L2690.94 242.49L2690.41 244.256C2690.12 245.227 2689.76 275.721 2689.61 312.021C2689.46 348.321 2689.46 396.888 2689.6 419.948C2689.73 443.008 2690.25 462.358 2690.74 462.948C2691.34 463.665 2700.89 464.021 2719.56 464.021H2747.49L2749.05 462.723L2750.62 461.425L2750.72 398.291L2750.83 335.156L2752.88 326.405C2754.01 321.592 2755.58 317.119 2756.37 316.465C2757.15 315.811 2757.8 314.716 2757.8 314.031C2757.8 313.347 2760.18 310.352 2763.08 307.377C2765.99 304.401 2770.47 300.731 2773.05 299.22C2775.63 297.709 2781.24 295.591 2785.52 294.513C2790.42 293.278 2796.72 292.546 2802.54 292.536C2807.61 292.528 2813.79 293.06 2816.25 293.72C2818.72 294.379 2820.96 294.69 2821.24 294.41C2821.52 294.13 2821.79 290.328 2821.84 285.961C2821.89 281.594 2822.64 270.488 2823.5 261.281L2825.06 244.541L2823.89 243.126C2823.24 242.348 2819.88 241.218 2816.42 240.616C2812.97 240.014 2807.02 239.571 2803.22 239.633C2799.41 239.694 2794.05 240.171 2791.3 240.691ZM2924.8 240.577C2921.77 241.101 2916.37 242.25 2912.8 243.131C2909.22 244.012 2903.46 245.801 2899.99 247.106C2896.51 248.411 2889.54 251.914 2884.49 254.889C2878.42 258.462 2872.58 263.019 2867.3 268.312C2862.9 272.719 2858.62 277.171 2857.8 278.206C2856.97 279.241 2855.16 281.873 2853.77 284.055C2852.39 286.236 2850.7 288.921 2850.04 290.021C2849.37 291.121 2847.47 294.815 2845.81 298.229C2844.16 301.644 2842.8 304.922 2842.8 305.514C2842.8 306.107 2842.13 307.617 2841.31 308.871C2840.48 310.125 2839.52 313.372 2839.17 316.086C2838.81 318.8 2837.82 322.371 2836.98 324.021L2835.43 327.021L2835.42 351.021L2835.41 375.021L2836.96 378.552C2837.82 380.494 2838.83 384.614 2839.22 387.709C2839.6 390.803 2840.79 395.047 2841.86 397.139C2842.93 399.232 2843.8 401.593 2843.8 402.386C2843.8 403.179 2844.93 406.121 2846.32 408.925C2847.7 411.728 2849.38 414.921 2850.04 416.021C2850.71 417.121 2852.39 419.821 2853.77 422.021C2855.16 424.221 2856.81 426.471 2857.43 427.021C2858.04 427.571 2858.96 428.812 2859.47 429.779C2859.97 430.745 2863.05 434.266 2866.3 437.604C2869.55 440.941 2875.71 446.138 2879.99 449.153C2884.27 452.168 2891.49 456.354 2896.03 458.456C2900.58 460.558 2908.12 463.192 2912.8 464.31C2917.47 465.428 2924.9 466.836 2929.3 467.438C2933.7 468.041 2940.2 468.531 2943.75 468.528C2947.29 468.524 2954.04 468.027 2958.75 467.424C2963.45 466.82 2971.75 465.221 2977.19 463.869C2982.63 462.518 2989.91 460.13 2993.37 458.563C2996.82 456.996 3002.72 453.722 3006.48 451.287C3010.23 448.853 3015.33 444.872 3017.8 442.441C3020.28 440.01 3023.93 435.996 3025.92 433.521C3027.9 431.046 3030.24 427.671 3031.11 426.021C3031.98 424.371 3034.3 419.764 3036.26 415.783C3038.23 411.802 3040.95 404.377 3042.31 399.283C3043.68 394.189 3044.8 388.841 3044.8 387.4L3044.8 384.779L3035.05 384.175C3029.69 383.842 3018.1 383.502 3009.3 383.419C3000.5 383.335 2992.11 383.324 2990.65 383.394C2988.77 383.484 2987.42 384.503 2986.01 386.892C2984.91 388.747 2983.71 392.119 2983.32 394.387C2982.94 396.655 2982.19 398.782 2981.65 399.113C2981.11 399.444 2980.29 400.731 2979.82 401.972C2979.35 403.214 2976.52 406.314 2973.54 408.861C2970.56 411.409 2965.91 414.484 2963.21 415.696C2959.65 417.291 2955.71 418.019 2948.9 418.335C2943.44 418.59 2937.16 418.258 2933.9 417.543C2930.82 416.867 2926.16 415.161 2923.54 413.753C2920.92 412.344 2916.58 408.863 2913.88 406.017C2911.19 403.171 2907.6 398.092 2905.9 394.729C2904.21 391.366 2901.63 384.656 2900.17 379.818L2897.53 371.021L2897.5 352.521C2897.48 342.132 2897.95 332.267 2898.57 330.021C2899.17 327.821 2900.38 323.996 2901.26 321.521C2902.14 319.046 2903.64 315.446 2904.58 313.521C2905.53 311.596 2907.42 308.474 2908.8 306.584C2910.17 304.694 2913.1 301.398 2915.3 299.26C2917.5 297.122 2922.11 294.014 2925.55 292.353C2928.99 290.692 2934.95 288.846 2938.8 288.25C2943.95 287.451 2947.44 287.472 2952.05 288.33C2955.49 288.969 2961.02 290.834 2964.35 292.473C2967.68 294.113 2972.35 297.421 2974.72 299.824C2977.08 302.228 2980.09 306.406 2981.4 309.108C2982.71 311.81 2983.79 315.18 2983.79 316.597C2983.8 318.064 2984.91 320.216 2986.38 321.597L2988.96 324.021L3014.13 323.75C3027.97 323.601 3040.54 323.228 3042.05 322.921C3043.82 322.561 3044.8 321.723 3044.8 320.57C3044.8 319.584 3043.72 314.536 3042.41 309.352C3041.09 304.167 3038.52 296.797 3036.69 292.973C3034.86 289.15 3031.42 283.011 3029.03 279.333C3026.65 275.655 3020.95 269.094 3016.36 264.754C3010.84 259.526 3005.37 255.483 3000.16 252.777C2995.84 250.53 2989.82 247.736 2986.8 246.568C2983.77 245.4 2977.7 243.526 2973.3 242.403L2965.3 240.361L2947.8 239.993C2938.17 239.791 2927.82 240.054 2924.8 240.577ZM3153.8 241.409C3149.12 242.436 3141.77 244.466 3137.46 245.921C3133.15 247.376 3126.4 250.344 3122.46 252.517C3118.52 254.69 3111.62 259.615 3107.12 263.462C3102.62 267.308 3096.43 273.596 3093.37 277.435C3090.31 281.273 3087.8 284.828 3087.8 285.333C3087.8 285.838 3086.93 287.36 3085.86 288.715C3084.8 290.07 3083.63 292.362 3083.26 293.809C3082.9 295.255 3081.97 296.963 3081.2 297.602C3080.43 298.242 3079.8 299.73 3079.8 300.908C3079.8 302.087 3078.9 304.73 3077.8 306.782C3076.7 308.835 3075.8 311.189 3075.8 312.013C3075.8 312.838 3074.81 316.327 3073.59 319.767L3071.39 326.021L3071.4 353.021L3071.42 380.021L3073.12 383.254C3074.06 385.032 3075.12 388.632 3075.47 391.254C3075.82 393.876 3076.94 397.589 3077.95 399.506C3078.97 401.423 3079.8 403.809 3079.8 404.808C3079.8 405.807 3080.78 408.514 3081.97 410.823C3083.16 413.132 3084.52 415.696 3084.99 416.521C3085.46 417.346 3086.39 419.166 3087.07 420.566C3087.75 421.966 3088.86 423.766 3089.53 424.566C3090.21 425.366 3091.9 427.436 3093.28 429.165C3094.67 430.895 3095.8 432.652 3095.8 433.071C3095.8 433.49 3098.16 436.055 3101.05 438.77C3103.94 441.486 3109 445.74 3112.3 448.223C3115.6 450.707 3121.22 454.213 3124.8 456.016C3128.37 457.818 3134.67 460.415 3138.8 461.787C3142.92 463.158 3149.45 464.773 3153.3 465.376C3157.15 465.979 3164.07 466.997 3168.68 467.639C3173.9 468.366 3180.89 468.539 3187.18 468.096C3192.75 467.705 3200.22 467.004 3203.8 466.538C3207.37 466.073 3212.4 465.223 3214.97 464.651C3217.54 464.079 3223.84 461.994 3228.97 460.018C3234.1 458.042 3241.44 454.534 3245.28 452.223C3249.12 449.912 3255.12 445.342 3258.62 442.068C3262.12 438.794 3266.97 433.339 3269.39 429.945C3271.81 426.551 3274.94 421.277 3276.33 418.225C3277.73 415.173 3279.13 410.488 3279.45 407.815C3279.87 404.287 3279.64 402.633 3278.61 401.783C3277.84 401.138 3273.17 400.158 3268.25 399.605C3263.33 399.052 3252.91 398.089 3245.1 397.465C3234.78 396.64 3230 396.629 3227.59 397.425C3225.77 398.027 3223.83 399.328 3223.29 400.317C3222.74 401.305 3221.45 403.443 3220.41 405.067C3219.37 406.692 3216.45 409.711 3213.91 411.777C3211.37 413.843 3206.25 416.699 3202.53 418.123C3197.56 420.022 3193.17 420.846 3186.03 421.216C3179.35 421.562 3174.05 421.241 3169.13 420.191C3165.19 419.35 3159.4 417.409 3156.27 415.876C3152.65 414.103 3148.51 410.829 3144.89 406.875C3141.75 403.457 3138.02 398.267 3136.59 395.341C3135.16 392.415 3133.27 386.552 3132.39 382.313C3131.52 378.074 3130.8 373.525 3130.8 372.206V369.806L3136.95 369.163C3140.33 368.81 3173.85 368.521 3211.45 368.521H3279.8L3281.8 366.521C3282.9 365.421 3283.78 363.733 3283.76 362.771C3283.74 361.809 3283.33 354.046 3282.84 345.521C3282.35 336.794 3281.07 326.089 3279.92 321.021C3278.79 316.071 3276.5 308.264 3274.81 303.671C3273.13 299.079 3271.02 293.904 3270.13 292.171C3269.24 290.439 3266.48 285.871 3263.99 282.021C3261.51 278.171 3256.28 271.854 3252.37 267.983C3248.47 264.112 3241.69 258.593 3237.31 255.719C3232.93 252.844 3225.75 249.105 3221.35 247.41C3216.96 245.714 3209.97 243.417 3205.83 242.304L3198.3 240.281L3180.3 239.912L3162.3 239.543L3153.8 241.409ZM3194.9 287.121C3197.44 287.927 3201.53 289.865 3203.99 291.428C3206.46 292.992 3209.79 295.572 3211.39 297.162C3212.99 298.752 3215.54 301.87 3217.05 304.091C3218.56 306.312 3219.8 308.969 3219.8 309.996C3219.8 311.023 3220.56 312.703 3221.49 313.729C3222.44 314.782 3223.49 318.286 3223.9 321.778C3224.34 325.448 3224.23 328.715 3223.64 329.814L3222.65 331.664L3177.31 331.343C3152.37 331.166 3131.63 330.685 3131.22 330.274C3130.81 329.864 3131.44 325.629 3132.61 320.863C3133.8 316.058 3136.21 309.772 3138.03 306.75C3139.83 303.753 3143.48 299.335 3146.13 296.932C3148.79 294.529 3153.77 291.186 3157.18 289.503C3161.01 287.62 3165.88 286.168 3169.85 285.726C3173.4 285.331 3179.45 285.154 3183.3 285.332C3187.15 285.511 3192.37 286.316 3194.9 287.121ZM1948.22 287.034C1950.92 287.854 1954.97 289.613 1957.22 290.943C1959.46 292.273 1963.19 295.31 1965.5 297.691C1967.81 300.073 1970.85 304.182 1972.25 306.824C1973.65 309.466 1974.8 312.166 1974.81 312.824C1974.81 313.482 1975.5 315.34 1976.34 316.951C1977.18 318.563 1978.14 322.483 1978.47 325.664L1979.08 331.446L1933.01 331.501C1898.77 331.541 1886.75 331.254 1886.21 330.381C1885.81 329.735 1885.54 327.707 1885.61 325.874C1885.68 324.041 1886.37 321.299 1887.15 319.781C1887.92 318.263 1888.88 315.513 1889.28 313.671C1889.68 311.828 1891.27 308.443 1892.82 306.148C1894.37 303.854 1897.13 300.4 1898.97 298.473C1900.8 296.546 1903.78 293.924 1905.59 292.645C1907.41 291.366 1911.46 289.28 1914.59 288.009L1920.3 285.698L1931.8 285.62C1939.34 285.569 1944.99 286.057 1948.22 287.034ZM2555.92 289.028C2558.33 289.857 2561.42 291.075 2562.8 291.736C2564.17 292.396 2567.27 294.492 2569.67 296.393C2572.07 298.294 2575 300.81 2576.17 301.983C2577.34 303.156 2578.86 305.22 2579.54 306.569C2580.23 307.917 2581.17 309.696 2581.64 310.521C2582.12 311.346 2583.41 314.046 2584.52 316.521C2585.62 318.996 2587.37 323.271 2588.39 326.021L2590.25 331.021V353.521V376.021L2588.38 381.021C2587.35 383.771 2585.67 387.87 2584.65 390.131C2583.63 392.391 2582.8 394.506 2582.8 394.83C2582.8 395.155 2581.47 397.394 2579.84 399.807C2578.21 402.219 2574.8 406.107 2572.26 408.446C2569.73 410.786 2565.22 413.813 2562.25 415.173C2559.28 416.533 2553.95 418.097 2550.41 418.648C2546.17 419.308 2541.57 419.316 2536.92 418.671C2533.03 418.133 2527.4 416.569 2524.4 415.196C2521.4 413.823 2516.91 410.816 2514.41 408.513C2511.91 406.211 2508.3 401.974 2506.39 399.098C2504.49 396.222 2501.95 391.428 2500.76 388.445C2499.58 385.462 2497.95 379.646 2497.14 375.521C2496.33 371.396 2495.44 362.846 2495.16 356.521L2494.64 345.021L2496.66 333.932C2497.77 327.832 2499.33 321.307 2500.13 319.432C2500.93 317.556 2502.11 314.896 2502.74 313.521C2503.38 312.146 2504.57 309.79 2505.4 308.285C2506.22 306.78 2509.54 302.817 2512.76 299.477C2517.11 294.981 2520.4 292.649 2525.47 290.49L2532.3 287.575L2541.92 287.548C2547.96 287.531 2553.18 288.082 2555.92 289.028ZM1621.79 372.771C1621.79 379.521 1621.11 385.844 1619.8 391.29C1618.71 395.838 1617.06 400.788 1616.12 402.29C1615.19 403.792 1612.95 406.875 1611.15 409.142C1609.35 411.408 1605.62 414.709 1602.87 416.476C1600.12 418.243 1595.54 420.571 1592.7 421.649C1589.87 422.727 1583.99 424.055 1579.63 424.601C1574.09 425.296 1569.87 425.259 1565.56 424.478C1562.18 423.864 1557.71 422.495 1555.63 421.435C1553.55 420.376 1550.27 418.115 1548.33 416.411C1546.39 414.708 1544.8 412.833 1544.8 412.246C1544.8 411.659 1544.02 410.315 1543.06 409.259L1541.33 407.34V399.521V391.702L1543.06 389.783C1544.02 388.727 1544.81 387.449 1544.83 386.942C1544.85 386.436 1545.86 384.896 1547.08 383.521C1548.3 382.146 1551.55 379.609 1554.3 377.882C1557.05 376.156 1560.87 374.272 1562.8 373.697C1564.72 373.121 1568.15 372.171 1570.42 371.586C1572.68 371 1576.16 370.521 1578.15 370.521C1580.14 370.521 1583.69 370.087 1586.04 369.556C1588.38 369.025 1594.57 367.859 1599.8 366.965C1605.02 366.071 1610.65 364.742 1612.3 364.012C1613.95 363.281 1616.76 362.647 1618.55 362.602L1621.8 362.521L1621.79 372.771ZM2879.14 567.562C2876.86 568.015 2873.26 569.27 2871.14 570.353C2869.03 571.435 2865.39 574.2 2863.05 576.498C2860.71 578.795 2858.8 581.167 2858.8 581.769C2858.8 582.371 2858.01 583.734 2857.05 584.797L2855.3 586.731L2855.33 597.376L2855.36 608.021L2857.74 612.021C2859.05 614.221 2861.85 617.658 2863.96 619.659C2866.08 621.66 2869.4 624.051 2871.34 624.973C2873.28 625.895 2877.44 627.321 2880.59 628.141L2886.3 629.632L2892.8 628.476C2896.37 627.839 2901.48 626.365 2904.15 625.2C2906.89 624.006 2910.82 621.065 2913.15 618.466C2915.8 615.517 2917.93 611.794 2919.05 608.147C2920.01 605.009 2920.8 600.362 2920.8 597.819C2920.8 595.277 2920.03 590.748 2919.08 587.755C2918.1 584.618 2915.71 580.431 2913.46 577.87C2911.31 575.426 2907.45 572.363 2904.88 571.063C2902.32 569.763 2897.57 568.21 2894.33 567.61C2891.08 567.011 2887.28 566.57 2885.87 566.631C2884.45 566.691 2881.43 567.11 2879.14 567.562ZM1251.13 582.487C1241.69 582.781 1233.71 583.273 1233.4 583.582C1233.1 583.89 1232.81 649.772 1232.78 729.986C1232.74 810.2 1233.09 876.212 1233.56 876.68C1234.03 877.148 1247.02 877.641 1262.44 877.776L1290.47 878.021L1292.89 876.736L1295.3 875.451L1295.28 818.236C1295.27 786.768 1294.95 760.519 1294.56 759.905C1294.17 759.291 1294.78 757.941 1295.93 756.905L1298.02 755.021H1356.8H1415.59L1417.69 753.116L1419.8 751.211V732.544V713.877L1418.21 709.199L1416.61 704.521H1356.76H1296.92L1296.11 703.271C1295.66 702.584 1295.44 687.396 1295.6 669.521C1295.77 651.646 1296.13 636.234 1296.42 635.271L1296.93 633.521H1362.74H1428.55L1429.88 631.919C1430.66 630.983 1431.23 627.763 1431.25 624.169C1431.27 620.788 1431.09 612.621 1430.86 606.021C1430.62 599.421 1430.76 592.612 1431.17 590.889L1431.91 587.757L1429.59 585.061L1427.27 582.364L1347.78 582.159C1304.07 582.045 1260.57 582.193 1251.13 582.487ZM2366.3 582.148C2365.2 582.41 2363.28 583.13 2362.04 583.748L2359.78 584.871L2359.82 637.333C2359.84 666.187 2359.72 689.932 2359.55 690.099C2359.39 690.266 2356.79 687.015 2353.77 682.874C2350.76 678.732 2346.45 673.696 2344.18 671.682C2341.92 669.669 2338.63 666.842 2336.87 665.402C2335.11 663.962 2331.34 661.641 2328.49 660.244C2325.63 658.847 2320.44 656.963 2316.94 656.056C2313.44 655.149 2306.99 653.999 2302.62 653.501C2297.58 652.926 2291.67 652.965 2286.48 653.605C2281.98 654.161 2275.37 655.485 2271.8 656.545C2268.22 657.606 2262.15 660.025 2258.3 661.92C2254.45 663.815 2249.57 666.449 2247.46 667.773C2245.35 669.097 2239.84 673.947 2235.21 678.552C2230.58 683.156 2226.8 687.453 2226.8 688.1C2226.8 688.747 2226.08 689.875 2225.2 690.607C2224.31 691.34 2223.18 692.857 2222.68 693.98C2222.18 695.103 2220.21 698.496 2218.32 701.521C2216.43 704.546 2214.86 707.601 2214.84 708.311C2214.82 709.02 2213.9 711.365 2212.8 713.521C2211.7 715.677 2210.78 718.472 2210.76 719.731C2210.73 720.991 2210.03 723.821 2209.2 726.021C2208.36 728.221 2207.02 735.196 2206.2 741.521C2205.39 747.846 2204.46 756.479 2204.14 760.705C2203.81 764.931 2204.06 771.906 2204.68 776.205C2205.31 780.504 2206.23 788.296 2206.72 793.521C2207.22 798.746 2208.34 804.371 2209.21 806.021C2210.08 807.671 2210.79 810.276 2210.79 811.811C2210.8 813.345 2211.7 816.365 2212.8 818.521C2213.9 820.677 2214.8 823.062 2214.8 823.821C2214.8 824.581 2216.18 827.861 2217.86 831.111C2219.54 834.362 2221.79 838.371 2222.86 840.021C2223.93 841.671 2225.51 844.535 2226.36 846.385C2227.22 848.235 2231.61 853.447 2236.11 857.968C2240.61 862.489 2246.22 867.4 2248.57 868.881C2250.92 870.362 2255.42 872.856 2258.57 874.423C2261.72 875.99 2268.12 878.31 2272.8 879.579L2281.3 881.886L2294.3 881.952C2303.41 881.999 2309.39 881.504 2314.3 880.299C2318.15 879.353 2324 877.628 2327.3 876.465C2330.6 875.302 2335.55 872.64 2338.3 870.548C2341.05 868.456 2345.66 864.443 2348.55 861.63C2351.44 858.816 2353.8 855.647 2353.8 854.586C2353.8 853.525 2355.15 851.697 2356.8 850.523C2358.45 849.349 2360.12 847.181 2360.52 845.705L2361.24 843.021L2361.93 848.021C2362.31 850.771 2362.66 857.826 2362.71 863.7L2362.8 874.378L2364.37 875.948C2365.23 876.812 2367.07 877.802 2368.45 878.149C2369.84 878.497 2381.87 878.579 2395.19 878.333C2408.51 878.086 2419.92 877.565 2420.55 877.175C2421.41 876.647 2421.69 839.327 2421.65 730.641C2421.62 650.438 2421.23 584.217 2420.78 583.485L2419.95 582.153L2394.13 581.912C2379.92 581.78 2367.4 581.886 2366.3 582.148ZM2718.41 602.609L2715.76 604.697L2715.97 629.392C2716.09 642.974 2715.84 654.653 2715.41 655.346C2714.83 656.279 2711.33 656.53 2701.94 656.314L2689.25 656.021L2686.52 657.794L2683.8 659.567V678.467V697.368L2686.39 700.444L2688.98 703.521H2702.39H2715.8L2715.88 705.271C2715.93 706.234 2715.89 732.896 2715.81 764.521C2715.7 805.595 2715.98 822.878 2716.8 825.021C2717.43 826.671 2718.35 831.572 2718.84 835.912C2719.34 840.251 2720.37 844.526 2721.14 845.412C2721.9 846.297 2722.85 848.371 2723.24 850.021C2723.62 851.671 2725.82 855.271 2728.11 858.021C2730.4 860.771 2733.4 863.921 2734.77 865.021C2736.15 866.121 2738.04 867.776 2738.97 868.698C2739.89 869.621 2742.6 871.444 2744.98 872.749C2747.35 874.055 2751.77 875.934 2754.8 876.926C2757.82 877.918 2761.87 879.133 2763.8 879.625C2765.72 880.118 2771.8 880.976 2777.3 881.533C2784.2 882.231 2790.39 882.213 2797.3 881.475C2802.8 880.887 2810.22 879.753 2813.8 878.956C2817.37 878.158 2821.42 876.961 2822.8 876.296C2824.17 875.631 2825.45 875 2825.63 874.893C2825.81 874.786 2825.07 870.946 2823.98 866.36C2822.89 861.773 2821.49 855.546 2820.87 852.521C2820.24 849.496 2819.23 844.771 2818.61 842.021C2818 839.271 2816.66 835.819 2815.64 834.35L2813.78 831.679L2800.96 831.35L2788.14 831.021L2784.45 828.204C2782.42 826.655 2779.98 824.201 2779.03 822.75L2777.3 820.112L2777 761.816L2776.7 703.521H2797.17C2808.42 703.521 2818.35 703.248 2819.22 702.914L2820.8 702.307V680.031V657.754L2818.55 657.151C2817.31 656.82 2809.1 656.537 2800.3 656.524C2791.5 656.51 2782.61 656.22 2780.55 655.879L2776.8 655.259V628.507V601.754L2774.55 601.151C2773.31 600.82 2760.77 600.542 2746.68 600.535L2721.07 600.521L2718.41 602.609ZM1554.3 653.21C1552.65 653.424 1547.51 654.285 1542.88 655.124C1538.25 655.963 1531.06 657.79 1526.91 659.184C1522.75 660.579 1516.19 663.311 1512.33 665.256C1508.46 667.201 1502.81 670.483 1499.76 672.548C1496.72 674.614 1490.84 679.675 1486.69 683.794C1482.54 687.913 1477.48 693.804 1475.43 696.884C1473.39 699.965 1469.93 705.981 1467.74 710.253C1465.56 714.525 1462.63 721.761 1461.23 726.332C1459.84 730.903 1458.22 738.328 1457.65 742.832C1457.07 747.336 1456.3 754.846 1455.95 759.521C1455.59 764.196 1455.57 772.296 1455.91 777.521C1456.24 782.746 1457.06 790.621 1457.72 795.021C1458.37 799.421 1459.83 805.946 1460.95 809.521C1462.06 813.096 1463.93 818.271 1465.09 821.021C1466.25 823.771 1467.79 826.731 1468.5 827.6C1469.21 828.468 1469.8 829.56 1469.8 830.026C1469.8 830.493 1471.94 834.057 1474.55 837.947C1477.16 841.837 1482.67 848.436 1486.8 852.612C1490.92 856.787 1497.67 862.455 1501.8 865.208C1505.92 867.96 1510.39 870.788 1511.72 871.492C1513.05 872.196 1518.26 874.245 1523.3 876.046C1528.34 877.846 1536.92 880.079 1542.37 881.008C1548.7 882.086 1557.73 882.692 1567.29 882.683L1582.3 882.668L1591.51 880.601C1596.57 879.465 1604.03 877.422 1608.08 876.061C1612.14 874.701 1618.68 871.858 1622.63 869.743C1626.58 867.629 1631.95 864.133 1634.56 861.975C1637.17 859.816 1641.62 855.642 1644.46 852.699C1647.3 849.755 1650.34 846.486 1651.21 845.434C1652.09 844.382 1652.8 843.097 1652.8 842.578C1652.8 842.059 1653.59 841.046 1654.56 840.328C1655.54 839.609 1656.88 837.896 1657.56 836.521C1658.23 835.146 1659.33 833.121 1660 832.021C1660.67 830.921 1662.02 828.802 1663.01 827.311C1663.99 825.821 1664.8 823.79 1664.8 822.797C1664.8 821.804 1665.7 819.312 1666.8 817.26C1667.9 815.207 1668.82 812.514 1668.84 811.275C1668.87 810.035 1669.58 807.221 1670.43 805.021C1671.28 802.821 1672.57 797.196 1673.31 792.521C1674.05 787.846 1675.23 781.443 1675.93 778.292L1677.2 772.562L1676 762.792C1675.34 757.418 1674.2 748.213 1673.48 742.337C1672.75 736.461 1671.64 731.038 1671.02 730.287C1670.4 729.536 1669.59 727.04 1669.22 724.74C1668.85 722.44 1667.93 720.042 1667.17 719.41C1666.4 718.778 1665.5 716.528 1665.17 714.41C1664.83 712.292 1663.93 710.045 1663.17 709.417C1662.42 708.79 1661.8 707.802 1661.8 707.222C1661.8 706.642 1659.68 702.985 1657.09 699.094C1654.5 695.204 1651.81 691.346 1651.11 690.521C1650.41 689.696 1646.98 686.186 1643.48 682.721C1639.98 679.255 1634.7 674.609 1631.75 672.395C1628.81 670.182 1622.33 666.422 1617.35 664.041C1612.37 661.66 1603.8 658.574 1598.3 657.182C1592.8 655.79 1584.25 654.173 1579.3 653.589C1574.35 653.005 1567.37 652.593 1563.8 652.674C1560.22 652.755 1555.95 652.996 1554.3 653.21ZM2076.3 653.63C2073 654.106 2067.37 655.388 2063.8 656.478C2060.22 657.569 2054.15 660.307 2050.3 662.564C2046.45 664.821 2040.47 669.447 2037.01 672.844C2033.55 676.241 2028.6 682.346 2026.01 686.411L2021.3 693.8L2020.96 690.911C2020.77 689.321 2020.27 687.571 2019.85 687.021C2019.42 686.471 2018.78 684.107 2018.42 681.767C2018.04 679.244 2018.39 674.564 2019.29 670.267C2020.12 666.282 2020.8 661.997 2020.8 660.746C2020.8 659.224 2019.95 658.149 2018.23 657.496C2016.82 656.959 2004.82 656.527 1991.48 656.535C1978.18 656.542 1966.29 656.82 1965.05 657.151L1962.8 657.754V767.169V876.584L1964.55 877.302C1965.51 877.698 1978 878.021 1992.3 878.021C2006.6 878.021 2019.09 877.698 2020.05 877.302L2021.8 876.584V813.073V749.561L2023.22 745.791C2024 743.718 2024.93 740.272 2025.29 738.135C2025.65 735.998 2026.81 732.63 2027.87 730.65C2028.93 728.67 2029.8 726.726 2029.8 726.33C2029.8 725.934 2030.96 723.902 2032.37 721.815C2033.78 719.728 2036.7 716.379 2038.84 714.372C2040.99 712.365 2044.74 709.76 2047.17 708.583C2049.6 707.406 2054.45 705.969 2057.95 705.389C2061.44 704.81 2067.87 704.62 2072.24 704.967C2078 705.426 2081.46 706.302 2084.9 708.173C2087.5 709.588 2091.36 712.396 2093.46 714.413C2095.57 716.43 2098.31 719.507 2099.54 721.252C2100.78 722.997 2102.92 727.879 2104.29 732.101L2106.8 739.776L2106.81 807.399C2106.82 848.21 2107.21 875.616 2107.78 876.521L2108.72 878.021L2136.51 878.322L2164.3 878.623L2166.16 877.253L2168.02 875.883L2167.88 808.697C2167.8 771.745 2167.53 740.95 2167.29 740.266C2167.04 739.581 2166.4 732.621 2165.86 724.798C2165.23 715.689 2164.32 709.504 2163.34 707.597C2162.49 705.96 2161.8 703.568 2161.8 702.282C2161.8 700.996 2160.9 698.179 2159.8 696.021C2158.7 693.863 2157.8 691.558 2157.8 690.897C2157.8 690.236 2154.87 685.979 2151.29 681.437C2147.63 676.79 2142.03 671.175 2138.49 668.599C2135.03 666.081 2130.2 663.039 2127.75 661.839C2125.3 660.639 2120.4 658.667 2116.86 657.457C2113.32 656.247 2106.34 654.644 2101.36 653.896C2096.38 653.148 2090.05 652.587 2087.3 652.65C2084.55 652.713 2079.6 653.154 2076.3 653.63ZM2548.8 653.146C2546.87 653.392 2541.38 654.249 2536.59 655.05C2531.8 655.851 2524.38 657.682 2520.1 659.12C2515.82 660.557 2510.06 662.856 2507.31 664.228C2504.55 665.6 2499.82 668.362 2496.8 670.367C2493.77 672.372 2489.67 675.364 2487.67 677.016C2485.68 678.669 2482.08 682.501 2479.67 685.533C2477.27 688.565 2474.38 692.39 2473.27 694.033C2472.15 695.676 2470.47 698.821 2469.53 701.021C2468.59 703.221 2467.42 706.952 2466.91 709.311C2466.41 711.671 2466.32 714.821 2466.72 716.311L2467.44 719.021L2472.87 719.719C2475.86 720.104 2486.32 720.886 2496.13 721.459C2505.93 722.031 2514.4 722.772 2514.94 723.106C2515.48 723.44 2517.15 723.205 2518.65 722.582C2520.15 721.96 2522.21 719.906 2523.23 718.017C2524.25 716.129 2527.38 712.149 2530.19 709.175C2533.95 705.195 2536.88 703.171 2541.3 701.513C2545.5 699.936 2550.35 699.111 2557.45 698.764L2567.61 698.267L2574.45 700.372C2578.22 701.529 2582.69 703.337 2584.39 704.388C2586.09 705.44 2589.15 708.338 2591.19 710.828L2594.9 715.355L2595.1 723.822L2595.3 732.289L2593.32 734.482C2592.24 735.689 2589.53 737.504 2587.31 738.516C2585.09 739.528 2578.33 741.247 2572.29 742.336C2566.24 743.425 2556.57 744.859 2550.8 745.522C2545.02 746.185 2536.07 747.344 2530.9 748.098C2525.73 748.851 2517.66 750.429 2512.96 751.605C2508.27 752.78 2500.99 755.194 2496.78 756.968C2492.58 758.743 2486.92 761.705 2484.22 763.551C2481.51 765.397 2476.89 769.183 2473.95 771.964C2471.01 774.745 2467.77 778.596 2466.75 780.521C2465.74 782.446 2464.39 785.146 2463.75 786.521C2463.12 787.896 2461.77 790.821 2460.76 793.021C2459.74 795.221 2458.61 799.496 2458.25 802.521C2457.88 805.546 2457.28 810.046 2456.91 812.521C2456.53 815.062 2456.79 820.069 2457.52 824.021C2458.22 827.871 2458.8 832.153 2458.8 833.536C2458.8 834.919 2459.7 837.73 2460.8 839.782C2461.9 841.835 2462.8 844.346 2462.8 845.362C2462.8 846.379 2463.7 848.026 2464.8 849.021C2465.9 850.016 2466.8 851.421 2466.8 852.143C2466.8 852.864 2468.9 855.832 2471.47 858.738C2474.04 861.643 2478.61 865.945 2481.63 868.297C2484.64 870.649 2488.5 873.199 2490.2 873.965C2491.91 874.73 2496 876.269 2499.3 877.385C2502.6 878.501 2509.12 880.176 2513.79 881.106L2522.28 882.799L2535.79 882.217C2544.87 881.825 2551.76 880.949 2556.8 879.544C2560.92 878.394 2566.09 876.758 2568.27 875.908C2570.45 875.058 2574.95 872.358 2578.27 869.909C2581.59 867.459 2585.8 864.296 2587.63 862.88C2589.46 861.465 2593.02 857.542 2595.54 854.164C2598.06 850.785 2599.82 848.856 2599.45 849.876C2599.08 850.897 2599.52 856.972 2600.41 863.376C2601.33 869.935 2602.66 875.676 2603.46 876.521L2604.87 878.021H2629.59C2643.18 878.021 2655.1 877.691 2656.09 877.287L2657.88 876.553L2657.52 797.287L2657.15 718.021L2655.1 710.49C2653.98 706.348 2651.76 700.548 2650.18 697.601C2648.59 694.654 2646.79 691.365 2646.16 690.292C2645.54 689.219 2642.94 685.925 2640.39 682.973C2637.84 680.02 2633.18 675.642 2630.03 673.242C2626.88 670.842 2621.82 667.496 2618.8 665.806C2615.77 664.116 2610.03 661.567 2606.03 660.142C2602.04 658.718 2594.2 656.622 2588.63 655.485C2582.52 654.24 2573.28 653.275 2565.39 653.058C2558.19 652.86 2550.72 652.9 2548.8 653.146ZM3052.3 653.21C3050.65 653.424 3045.49 654.289 3040.84 655.131C3036.19 655.974 3028.59 657.979 3023.95 659.586C3019.31 661.194 3012.66 664.106 3009.17 666.057C3005.68 668.008 2999.56 672.228 2995.56 675.434C2991.57 678.64 2986.49 683.234 2984.29 685.642C2982.08 688.051 2978.93 692.046 2977.29 694.521C2975.65 696.996 2973.74 699.381 2973.05 699.821C2972.36 700.261 2971.8 701.212 2971.8 701.936C2971.8 702.659 2970.96 704.324 2969.93 705.636C2968.9 706.948 2967.75 709.452 2967.37 711.202C2966.98 712.951 2966.07 714.88 2965.34 715.488C2964.61 716.095 2963.7 718.248 2963.32 720.272C2962.94 722.296 2962.04 725.098 2961.31 726.5C2960.59 727.901 2959.69 731.291 2959.31 734.034C2958.94 736.777 2957.88 741.046 2956.96 743.521L2955.3 748.021L2955.37 767.521C2955.42 781.029 2955.82 787.729 2956.69 789.325C2957.37 790.592 2958.54 795.092 2959.28 799.325C2960.02 803.558 2961.38 809.271 2962.29 812.021C2963.2 814.771 2964.36 817.696 2964.88 818.521C2965.39 819.346 2966.27 821.146 2966.83 822.521C2967.4 823.896 2968.09 825.471 2968.38 826.021C2968.66 826.571 2969.99 828.821 2971.32 831.021C2972.66 833.221 2974.23 836.101 2974.81 837.421C2975.39 838.74 2977.76 842.105 2980.08 844.897C2982.4 847.689 2986.1 851.622 2988.3 853.637C2990.5 855.652 2994.1 858.937 2996.3 860.938C2998.5 862.938 3003.69 866.545 3007.84 868.952C3011.98 871.359 3018.82 874.486 3023.04 875.902C3027.26 877.318 3033.99 879.274 3038 880.249L3045.3 882.021L3065.8 882.018C3078.99 882.017 3088.44 881.548 3092.3 880.704C3095.6 879.983 3101.22 878.458 3104.8 877.316C3108.37 876.174 3114.45 873.667 3118.3 871.745C3122.15 869.822 3127.97 866.441 3131.22 864.23C3134.48 862.019 3139.92 857.442 3143.3 854.057C3146.68 850.673 3151.37 845.316 3153.7 842.153C3156.04 838.989 3159.44 833.586 3161.27 830.146C3163.09 826.706 3165.7 820.996 3167.07 817.456C3168.43 813.917 3170.61 806.746 3171.9 801.521L3174.26 792.021L3174.24 768.021L3174.22 744.021L3171.44 733.521C3169.91 727.746 3168.24 722.594 3167.73 722.071C3167.22 721.549 3166.8 720.329 3166.8 719.362C3166.8 718.394 3164.88 713.872 3162.53 709.312C3160.17 704.752 3156.27 698.321 3153.84 695.021C3151.42 691.721 3146.26 685.853 3142.37 681.981C3138.48 678.11 3132.6 673.173 3129.3 671.01C3126 668.848 3120.37 665.596 3116.8 663.784C3113.22 661.972 3106.87 659.397 3102.68 658.062C3098.49 656.727 3090.03 654.934 3083.89 654.078C3077.75 653.222 3068.81 652.588 3064.02 652.671C3059.22 652.753 3053.95 652.996 3052.3 653.21ZM3324.3 653.934C3319.9 654.674 3313.63 656.299 3310.36 657.544C3307.09 658.789 3302.37 661.107 3299.86 662.695C3297.36 664.283 3291.82 668.749 3287.56 672.62C3283.29 676.49 3279.8 680.124 3279.8 680.695C3279.8 681.265 3278.66 683.147 3277.26 684.877C3275.86 686.606 3273.61 689.266 3272.26 690.788L3269.8 693.556V675.647V657.738L3267.44 657.146C3266.14 656.82 3254.32 656.523 3241.16 656.485C3228 656.446 3216.35 656.744 3215.27 657.145C3214.19 657.547 3212.97 658.358 3212.56 658.948C3212.16 659.538 3211.82 708.453 3211.81 767.649L3211.8 875.276L3213.45 876.649L3215.1 878.021L3241.64 878.333C3256.23 878.504 3269.21 878.383 3270.48 878.064L3272.8 877.483L3272.82 813.252C3272.83 776.357 3273.26 746.113 3273.83 742.189C3274.37 738.431 3275.79 733.031 3276.98 730.189C3278.17 727.346 3280.7 723.068 3282.61 720.681C3284.52 718.294 3287.26 715.239 3288.69 713.891C3290.13 712.543 3294.22 709.996 3297.78 708.231L3304.26 705.021H3316.28H3328.3L3333.95 707.796C3337.06 709.323 3341.45 712.257 3343.7 714.318C3345.96 716.379 3347.8 718.517 3347.8 719.071C3347.8 719.624 3348.7 720.847 3349.8 721.789C3350.9 722.731 3351.8 724.574 3351.8 725.884C3351.8 727.195 3352.72 730.342 3353.84 732.878L3355.88 737.488L3356.09 805.969L3356.3 874.45L3358.08 876.236L3359.87 878.021L3384.55 878.351C3398.13 878.533 3411.17 878.393 3413.52 878.04L3417.8 877.398L3417.75 808.71C3417.72 770.931 3417.29 736.646 3416.79 732.521C3416.3 728.396 3415.41 721.529 3414.82 717.261C3414.22 712.993 3412.51 706.018 3411 701.761C3409.49 697.504 3406.5 690.888 3404.36 687.059C3402.1 683.028 3397.64 677.346 3393.74 673.559C3390.05 669.963 3384.58 665.553 3381.59 663.759C3378.61 661.965 3373.59 659.593 3370.45 658.488C3367.3 657.383 3361.62 655.824 3357.81 655.023C3354 654.223 3346.71 653.347 3341.6 653.078C3336.05 652.786 3329.07 653.131 3324.3 653.934ZM3533.8 653.594C3530.22 654.045 3524.15 655.148 3520.3 656.044C3516.45 656.941 3510.6 658.607 3507.3 659.746C3504 660.886 3499.4 662.631 3497.07 663.624C3494.75 664.618 3490.25 667.079 3487.07 669.093C3483.9 671.108 3478.5 675.643 3475.09 679.172C3471.67 682.702 3468.3 686.66 3467.59 687.969C3466.88 689.278 3464.89 693.2 3463.18 696.685C3461.46 700.17 3459.5 705.496 3458.83 708.521C3458.15 711.546 3457.38 717.101 3457.11 720.865C3456.79 725.443 3457.19 729.912 3458.31 734.365C3459.24 738.026 3461.18 743.496 3462.62 746.521C3464.06 749.546 3465.82 752.616 3466.52 753.342C3467.22 754.069 3467.8 754.984 3467.8 755.376C3467.8 755.767 3470.7 759.16 3474.24 762.915C3477.77 766.669 3481.94 770.431 3483.49 771.273C3485.03 772.115 3488.43 773.862 3491.03 775.154C3493.63 776.447 3499.93 778.824 3505.03 780.436C3510.13 782.048 3519.25 784.478 3525.3 785.837C3531.35 787.195 3539 788.848 3542.3 789.51C3545.6 790.172 3550.32 791.115 3552.8 791.606C3555.27 792.098 3560.45 793.228 3564.3 794.119C3568.15 795.009 3573.1 796.649 3575.3 797.763C3577.5 798.878 3581.17 801.122 3583.45 802.75C3586.53 804.956 3587.9 806.812 3588.8 810.023C3589.51 812.574 3589.72 816.038 3589.3 818.508C3588.9 820.902 3587.37 824.074 3585.73 825.944C3584.16 827.737 3580.27 830.583 3577.08 832.268C3573.9 833.952 3568.86 836.048 3565.87 836.926C3562.88 837.803 3557.8 838.521 3554.58 838.521C3551.35 838.521 3545.25 837.805 3541.01 836.929C3536.77 836.054 3530.89 834.158 3527.95 832.717C3525 831.276 3520.95 828.215 3518.95 825.916C3516.94 823.616 3514.17 819.549 3512.8 816.878C3511.42 814.207 3509.85 811.666 3509.3 811.231C3508.75 810.797 3500.87 810.712 3491.8 811.043C3482.72 811.374 3470.59 812.093 3464.83 812.639C3459.08 813.186 3453.79 814.113 3453.08 814.699C3452.38 815.286 3451.8 817.173 3451.81 818.893C3451.81 820.614 3452.71 823.371 3453.8 825.021C3454.89 826.671 3455.79 828.973 3455.79 830.136C3455.8 831.299 3456.7 833.395 3457.8 834.794C3458.9 836.192 3459.8 837.876 3459.8 838.534C3459.8 839.193 3460.94 841.147 3462.34 842.877C3463.74 844.606 3465.65 847.071 3466.59 848.354C3467.53 849.637 3470.87 853.317 3474.01 856.531C3477.16 859.745 3481.66 863.693 3484.01 865.305C3486.37 866.917 3491.72 869.875 3495.9 871.879C3500.09 873.882 3504.11 875.521 3504.84 875.521C3505.57 875.521 3508.67 876.379 3511.73 877.427C3514.79 878.476 3519.77 879.938 3522.8 880.677C3526.57 881.598 3535.36 882.02 3550.8 882.021C3565.46 882.021 3575.74 881.554 3580.3 880.681C3584.15 879.944 3591.12 878.22 3595.8 876.85C3600.47 875.48 3607.6 872.597 3611.62 870.442C3615.65 868.287 3621.58 864.5 3624.79 862.026C3628.01 859.552 3632.68 855.192 3635.18 852.336C3637.68 849.481 3641.06 844.626 3642.7 841.548C3644.35 838.469 3646.66 832.41 3647.85 828.081L3650.01 820.212L3649.55 809.117C3649.24 801.448 3648.43 795.939 3646.91 791.281C3645.71 787.574 3642.8 781.724 3640.45 778.281C3638.09 774.838 3633.5 769.833 3630.23 767.159C3626.97 764.485 3620.7 760.562 3616.3 758.443C3611.9 756.323 3604.25 753.425 3599.3 752.002C3594.35 750.579 3578.83 747.148 3564.81 744.379C3550.53 741.557 3536.72 738.252 3533.42 736.863C3530.18 735.499 3526.24 733.428 3524.66 732.262C3523.08 731.095 3520.9 728.284 3519.8 726.015C3518.7 723.746 3517.8 720.209 3517.8 718.156C3517.8 716.102 3518.45 713.173 3519.23 711.646C3520.02 710.12 3522.47 707.244 3524.67 705.256C3527.28 702.9 3531.05 700.904 3535.49 699.528C3539.23 698.365 3545 697.171 3548.3 696.874C3551.93 696.547 3557.09 696.927 3561.36 697.835C3565.25 698.66 3570.51 700.314 3573.05 701.509C3575.6 702.705 3579.95 705.961 3582.74 708.745C3585.52 711.529 3587.8 714.383 3587.8 715.087C3587.8 715.791 3588.9 717.679 3590.25 719.282L3592.7 722.196L3601 721.83C3605.57 721.629 3616.59 721.022 3625.5 720.481C3634.41 719.94 3642.41 719.226 3643.27 718.893L3644.85 718.289L3644.22 714.655C3643.88 712.656 3643.02 708.969 3642.31 706.461C3641.6 703.953 3639.63 699.141 3637.92 695.767C3636.22 692.393 3632.74 687.068 3630.19 683.934C3627.63 680.8 3623.98 676.837 3622.06 675.128C3620.14 673.419 3615.81 670.315 3612.44 668.229C3609.06 666.144 3603.91 663.326 3600.99 661.967C3598.08 660.609 3592.45 658.597 3588.49 657.497C3584.54 656.397 3576.21 654.827 3570 654.009C3563.78 653.19 3554.56 652.578 3549.5 652.648C3544.44 652.718 3537.37 653.144 3533.8 653.594ZM1713.39 657.241L1711.48 657.728L1712.13 724.375C1712.48 761.03 1713.22 797.996 1713.77 806.521C1714.44 816.811 1715.49 824.374 1716.88 829.021C1718.03 832.871 1720.18 838.437 1721.64 841.39C1723.1 844.343 1725 848.084 1725.85 849.703C1726.71 851.323 1729.97 855.51 1733.1 859.008C1736.23 862.506 1742.06 867.559 1746.07 870.237C1750.17 872.982 1756.83 876.253 1761.32 877.734C1765.71 879.179 1772.82 880.847 1777.12 881.441C1781.42 882.035 1787.1 882.521 1789.74 882.521C1792.38 882.521 1798.53 881.831 1803.42 880.988C1808.3 880.145 1815.41 878.348 1819.2 876.995C1823 875.641 1828.17 873.203 1830.7 871.576C1833.23 869.949 1838.37 865.274 1842.12 861.187C1845.88 857.101 1851.17 850.679 1853.87 846.916L1858.8 840.076V843.239C1858.8 844.979 1859.17 846.632 1859.62 846.913C1860.08 847.193 1860.06 850.678 1859.59 854.656C1859.11 858.634 1858.85 865.294 1859.01 869.455L1859.3 877.021L1865.3 877.662C1868.6 878.015 1880.12 878.353 1890.9 878.412C1902.9 878.479 1911.73 878.093 1913.67 877.418L1916.83 876.314L1916.2 774.668C1915.85 718.762 1915.5 669.998 1915.42 666.303C1915.33 662.373 1914.73 659.052 1913.98 658.303C1913.02 657.343 1906.12 656.94 1886.5 656.7C1870.04 656.499 1859.29 656.764 1857.58 657.415L1854.85 658.452L1854.58 728.736L1854.3 799.021L1852.39 802.021C1851.34 803.671 1849.34 806.821 1847.94 809.021C1846.54 811.221 1843.46 814.862 1841.1 817.112C1838.73 819.362 1834.66 822.36 1832.05 823.773C1829.44 825.186 1823.56 827.139 1819 828.113L1810.7 829.883L1803.86 828.242C1800.1 827.34 1794.61 825.197 1791.66 823.481C1788.71 821.765 1784.39 818.282 1782.06 815.741C1779.45 812.905 1777.57 809.752 1777.17 807.572C1776.82 805.619 1775.8 802.671 1774.92 801.021L1773.3 798.021L1772.8 728.03L1772.3 658.04L1769.3 657.399C1767.65 657.046 1754.82 656.757 1740.8 656.755C1726.77 656.754 1714.44 656.972 1713.39 657.241ZM2860.55 657.202C2859.59 657.458 2858.46 658.872 2858.05 660.344C2857.64 661.816 2857.33 710.624 2857.37 768.806L2857.44 874.591L2859.15 876.306L2860.87 878.021L2881.08 878.359C2892.2 878.544 2905.01 878.391 2909.55 878.019L2917.81 877.341L2917.55 767.181L2917.3 657.021L2889.8 656.879C2874.67 656.801 2861.51 656.947 2860.55 657.202ZM1577.59 702.952C1580.49 703.726 1584.99 705.749 1587.59 707.448C1590.18 709.147 1593.42 711.57 1594.8 712.834C1596.17 714.098 1598.23 716.457 1599.37 718.076C1600.51 719.696 1602.38 722.821 1603.53 725.021C1604.68 727.221 1606.51 731.046 1607.6 733.521C1608.68 735.996 1610.52 742.154 1611.69 747.205C1613.2 753.771 1613.8 759.743 1613.8 768.157C1613.8 776.633 1613.21 782.455 1611.68 788.973C1610.51 793.949 1608.9 799.596 1608.08 801.521C1607.27 803.446 1605.47 807.271 1604.07 810.021C1602.68 812.771 1600.23 816.683 1598.63 818.715C1597.03 820.747 1593.47 824.063 1590.71 826.084C1587.96 828.106 1582.99 830.606 1579.66 831.64C1575.79 832.846 1570.69 833.513 1565.46 833.5C1559.5 833.484 1555.51 832.847 1550.66 831.135C1547.01 829.846 1542.31 827.493 1540.23 825.906C1538.14 824.319 1533.82 819.729 1530.62 815.705C1527.42 811.682 1524.8 807.743 1524.8 806.952C1524.8 806.161 1523.9 803.835 1522.8 801.782C1521.7 799.73 1520.8 796.816 1520.8 795.306C1520.8 793.797 1520.01 790.64 1519.05 788.291L1517.3 784.021V766.521C1517.3 753.929 1517.67 748.377 1518.61 746.725C1519.33 745.462 1520.33 741.912 1520.83 738.837C1521.33 735.761 1522.43 732.484 1523.27 731.554C1524.11 730.624 1524.8 729.111 1524.8 728.192C1524.8 727.273 1525.7 725.621 1526.8 724.521C1527.9 723.421 1528.8 722.141 1528.8 721.677C1528.8 721.213 1531.49 718.079 1534.77 714.712C1538.06 711.346 1542.67 707.604 1545.02 706.397C1547.37 705.191 1551.32 703.641 1553.8 702.952C1556.27 702.263 1561.45 701.665 1565.3 701.622C1569.15 701.58 1574.68 702.178 1577.59 702.952ZM3076.46 702.92C3079.3 703.676 3083.77 705.358 3086.4 706.658C3089.02 707.958 3093.75 711.584 3096.9 714.718C3100.05 717.851 3102.96 721.451 3103.35 722.718C3103.75 723.984 3104.91 726.094 3105.94 727.406C3106.96 728.718 3107.8 730.871 3107.8 732.191C3107.8 733.511 3108.56 735.753 3109.49 737.173C3110.69 739.009 3111.49 743.69 3112.24 753.388C3113 763.169 3112.98 771.298 3112.19 782.157C3111.38 793.135 3110.62 797.934 3109.44 799.629C3108.54 800.914 3107.8 802.657 3107.8 803.501C3107.8 804.346 3106.63 807.283 3105.21 810.029C3103.78 812.775 3099.81 817.722 3096.38 821.023C3092.96 824.324 3088.16 828.005 3085.73 829.201C3083.29 830.398 3079.56 831.913 3077.42 832.568C3075.29 833.223 3069.67 833.773 3064.92 833.79L3056.3 833.821L3050.3 831.511C3047 830.24 3042.05 827.528 3039.3 825.483C3036.55 823.439 3033.35 820.699 3032.19 819.394C3031.03 818.089 3028.52 814.314 3026.61 811.005C3024.7 807.696 3022.14 801.705 3020.92 797.692C3019.59 793.321 3018.38 785.705 3017.89 778.695C3017.44 772.26 3017.46 762.099 3017.93 756.115C3018.41 749.927 3019.74 742.171 3021.02 738.128C3022.25 734.219 3024.79 728.321 3026.66 725.021C3028.53 721.721 3031.91 717.097 3034.16 714.745C3036.42 712.393 3039.97 709.291 3042.05 707.85C3044.12 706.409 3048.18 704.428 3051.06 703.446C3054.15 702.393 3059.37 701.637 3063.8 701.603C3067.92 701.571 3073.62 702.163 3076.46 702.92ZM2328.92 705.688C2331.88 706.88 2335.87 708.986 2337.8 710.37C2339.72 711.753 2343.19 714.904 2345.5 717.372C2347.8 719.84 2350.84 724.075 2352.25 726.782C2353.65 729.49 2354.8 732.364 2354.8 733.168C2354.8 733.973 2355.81 736.744 2357.03 739.326L2359.27 744.021L2359.28 767.521L2359.3 791.021L2356.59 798.521C2355.1 802.646 2352.96 807.821 2351.84 810.021C2350.72 812.221 2347.22 816.627 2344.07 819.811C2340.91 822.996 2336.02 826.735 2333.19 828.12C2330.36 829.505 2324.95 831.091 2321.17 831.646C2317.39 832.2 2311.6 832.373 2308.3 832.03C2305 831.687 2300.5 830.903 2298.3 830.287C2296.1 829.67 2292.17 827.637 2289.56 825.767C2286.95 823.897 2282.34 819.59 2279.32 816.194C2276.29 812.799 2273.8 809.346 2273.8 808.521C2273.8 807.696 2272.89 805.548 2271.8 803.747C2270.7 801.946 2269.79 799.471 2269.79 798.247C2269.78 797.023 2268.89 792.421 2267.8 788.021C2266.38 782.279 2265.82 776.574 2265.81 767.808C2265.8 758.839 2266.36 753.26 2267.89 746.808C2269.05 741.975 2270.94 735.771 2272.11 733.021C2273.28 730.271 2275.04 726.948 2276.02 725.636C2277 724.324 2277.8 722.726 2277.8 722.083C2277.8 721.441 2279.63 719.067 2281.87 716.808C2284.1 714.548 2287.71 711.469 2289.88 709.965C2292.05 708.461 2296.18 706.428 2299.06 705.446C2302.57 704.25 2307.47 703.638 2313.92 703.591L2323.53 703.521L2328.92 705.688ZM2596.18 778.064C2596.5 778.912 2596.33 787.203 2595.8 796.489L2594.83 813.371L2591.8 817.872C2590.12 820.348 2586.4 824.502 2583.53 827.104C2580.65 829.706 2575.52 833.105 2572.11 834.659C2568.71 836.212 2562.64 837.997 2558.61 838.624C2554.59 839.253 2547.75 839.495 2543.41 839.164C2538.51 838.79 2533.87 837.764 2531.18 836.462C2528.79 835.308 2524.85 832.346 2522.42 829.88L2518 825.398L2516.81 819.06L2515.61 812.722L2516.9 806.951L2518.19 801.179L2522.4 796.969C2524.72 794.653 2529.09 791.548 2532.11 790.069C2535.58 788.372 2541.98 786.644 2549.45 785.387C2555.97 784.291 2565.12 782.699 2569.8 781.849C2574.47 780.999 2580.62 779.902 2583.46 779.412C2586.3 778.921 2589.68 778.099 2590.96 777.584C2592.25 777.069 2593.81 776.619 2594.44 776.584C2595.07 776.55 2595.85 777.215 2596.18 778.064Z" fill="#18181b"/>
<path fill-rule="evenodd" clip-rule="evenodd" d="M152.799 3.47473C159.823 2.00573 168.927 1.06178 180.299 0.623782C189.649 0.263782 338.149 -0.0162651 510.299 0.000734851C682.449 0.0177349 823.782 0.343771 824.372 0.725771C824.962 1.10777 828.112 1.87876 831.372 2.43976C834.632 3.00076 840.224 4.11573 843.799 4.91773C847.374 5.71973 852.999 7.27874 856.299 8.38074C859.599 9.48374 864.939 11.3387 868.166 12.5037C871.393 13.6677 876.118 15.5797 878.666 16.7527C881.214 17.9247 887.799 21.5678 893.299 24.8458C898.799 28.1248 907.799 34.1998 913.299 38.3458C918.799 42.4918 928.024 50.6737 933.799 56.5267C939.574 62.3807 945.199 68.4017 946.299 69.9088C947.399 71.4147 948.974 73.4097 949.799 74.3417C950.624 75.2737 953.099 78.7307 955.299 82.0237C957.499 85.3167 959.865 89.1387 960.557 90.5157C961.25 91.8937 962.916 94.8208 964.26 97.0208C965.604 99.2207 966.937 101.471 967.222 102.021C967.507 102.571 968.202 104.146 968.767 105.521C969.332 106.896 970.213 108.696 970.726 109.521C971.238 110.346 972.548 113.046 973.636 115.521C974.724 117.996 975.927 121.146 976.311 122.521C976.694 123.896 977.565 125.921 978.247 127.021C978.928 128.121 979.792 130.965 980.166 133.341C980.539 135.718 981.459 138.643 982.21 139.841C982.96 141.04 983.872 143.821 984.236 146.021C984.599 148.221 985.522 152.046 986.287 154.521C987.051 156.996 988.143 166.221 988.713 175.021C989.284 183.821 990.002 201.371 990.309 214.021C990.617 226.671 990.852 371.121 990.833 535.021L990.797 833.021L989.289 856.521C988.46 869.446 987.347 881.372 986.815 883.024C986.283 884.676 985.202 889.176 984.412 893.024C983.623 896.872 982.194 902.271 981.238 905.021C980.282 907.771 978.944 911.146 978.265 912.521C977.586 913.896 976.696 916.578 976.289 918.481C975.881 920.384 974.668 923.759 973.594 925.981C972.519 928.203 971.228 930.696 970.725 931.521C970.221 932.346 968.19 936.171 966.211 940.021C964.232 943.871 961.867 948.333 960.956 949.937C960.045 951.541 958.71 953.566 957.99 954.437C957.27 955.308 954.558 958.765 951.963 962.119C949.369 965.473 946.47 968.993 945.522 969.941C944.574 970.888 943.799 972.063 943.799 972.552C943.799 973.04 940.521 976.721 936.514 980.73C932.507 984.74 926.271 990.648 922.655 993.859C919.039 997.069 915.193 1000.22 914.108 1000.86C913.023 1001.5 907.606 1005.02 902.069 1008.69C896.532 1012.36 888.469 1017.17 884.151 1019.38C879.832 1021.59 870.899 1025.49 864.299 1028.05C857.699 1030.61 850.274 1033.3 847.799 1034.02C845.324 1034.74 839.249 1036.03 834.299 1036.88C829.349 1037.74 818.549 1038.89 810.299 1039.45C800.421 1040.12 689.608 1040.33 485.799 1040.07C275.799 1039.8 173.161 1039.33 166.539 1038.6C161.171 1038.01 152.621 1036.63 147.539 1035.52C142.457 1034.41 135.374 1032.56 131.799 1031.4C128.224 1030.24 119.449 1026.5 112.299 1023.08C105.149 1019.67 95.4742 1014.48 90.7992 1011.56C86.1242 1008.64 79.3742 1003.98 75.7992 1001.2C72.2242 998.43 65.4512 992.66 60.7472 988.381C56.0432 984.103 48.9492 976.647 44.9832 971.812C41.0162 966.977 35.0532 958.971 31.7312 954.021C28.4102 949.071 23.0542 939.621 19.8292 933.021C16.6052 926.421 12.1352 915.396 9.89618 908.521C7.65718 901.646 4.9082 891.319 3.7872 885.572C2.6672 879.825 1.3302 867.45 0.8172 858.072C0.2712 848.104 -0.063807 707.256 0.010193 519.021C0.079193 341.921 0.482182 189.821 0.905182 181.021C1.40818 170.56 2.54319 160.825 4.18219 152.901C5.56119 146.236 7.5872 138.136 8.6832 134.901C9.7792 131.667 11.8252 125.982 13.2302 122.267C14.6352 118.552 18.0882 110.922 20.9042 105.312C23.7192 99.7018 28.7502 91.0407 32.0842 86.0657C35.4172 81.0907 40.1252 74.5458 42.5462 71.5208C44.9672 68.4958 51.3022 61.5878 56.6232 56.1708C61.9452 50.7528 71.4922 42.3967 77.8392 37.6027C84.1872 32.8077 93.4792 26.5738 98.4892 23.7498C103.499 20.9248 111.806 16.8198 116.949 14.6248C122.091 12.4308 129.899 9.51877 134.299 8.15277C138.699 6.78777 147.024 4.68173 152.799 3.47473ZM505.547 153.054C507.918 153.859 512.208 155.707 515.079 157.161C517.95 158.615 521.691 160.866 523.393 162.163C525.095 163.46 526.774 164.521 527.125 164.521C527.475 164.521 533.057 167.734 539.53 171.662C546.003 175.59 558.724 183.295 567.799 188.785C576.874 194.275 586.099 199.789 588.299 201.038C590.499 202.287 599.499 207.701 608.299 213.069C617.099 218.436 633.749 228.446 645.299 235.312C656.849 242.178 667.874 248.796 669.799 250.018C671.724 251.241 674.874 253.159 676.799 254.282C678.724 255.405 681.874 257.199 683.799 258.269C685.724 259.339 701.024 268.453 717.799 278.522C734.574 288.591 750.099 297.843 752.299 299.083C754.499 300.322 758.999 302.921 762.299 304.859C765.599 306.797 771.092 310.326 774.507 312.702C777.921 315.077 780.734 317.348 780.757 317.748C780.78 318.148 779.786 319.096 778.549 319.856C777.312 320.615 772.249 323.73 767.299 326.779C762.349 329.827 749.299 337.85 738.299 344.607C727.299 351.364 714.474 359.224 709.799 362.072C705.124 364.92 695.224 370.976 687.799 375.531C680.374 380.085 670.024 386.376 664.799 389.51C659.574 392.645 645.624 401.062 633.799 408.215C621.974 415.368 603.974 426.315 593.799 432.543C583.624 438.77 568.324 448.129 559.799 453.341C551.274 458.554 537.566 466.869 529.337 471.82C521.108 476.77 511.048 482.401 506.983 484.331L499.591 487.842L493.945 487.772C490.467 487.729 486.571 486.904 483.799 485.623C481.324 484.48 477.949 482.733 476.299 481.742C474.649 480.75 469.924 477.726 465.799 475.021C461.674 472.316 457.124 469.409 455.689 468.562C454.253 467.714 446.45 462.971 438.348 458.021C430.247 453.071 421.746 447.811 419.458 446.333C417.171 444.855 414.174 443.015 412.799 442.245C411.424 441.474 408.049 439.57 405.299 438.013C402.549 436.456 397.257 433.234 393.539 430.852C389.821 428.47 386.553 426.521 386.277 426.521C386.001 426.521 382.518 424.424 378.537 421.861C374.556 419.297 370.08 416.372 368.589 415.361C367.099 414.349 365.676 413.521 365.426 413.521C365.177 413.521 358.746 409.641 351.136 404.9C343.526 400.158 332.799 393.568 327.299 390.256C321.799 386.944 315.94 383.464 314.278 382.523C312.617 381.582 306.092 377.751 299.778 374.01C293.465 370.269 284.133 364.578 279.041 361.364C273.95 358.151 269.588 355.521 269.349 355.521C269.109 355.521 262.25 351.34 254.106 346.231C245.962 341.121 236.149 335.217 232.299 333.111C228.449 331.004 222.374 327.45 218.799 325.212C215.224 322.975 211.537 320.507 210.605 319.728L208.911 318.313L212.293 314.667C214.153 312.662 217.382 310.121 219.47 309.021C221.557 307.921 230.022 302.938 238.282 297.947C246.541 292.957 255.203 287.669 257.529 286.197C259.856 284.725 261.974 283.521 262.237 283.521C262.5 283.521 267.571 280.461 273.507 276.722C279.443 272.982 286.999 268.42 290.299 266.584C293.599 264.748 298.549 261.803 301.299 260.041C304.049 258.278 309.799 254.74 314.076 252.178C318.353 249.617 322.061 247.521 322.316 247.521C322.57 247.521 325.938 245.496 329.799 243.021C333.66 240.546 337.061 238.521 337.357 238.521C337.653 238.521 340.461 236.868 343.597 234.849C346.733 232.829 351.774 229.74 354.799 227.984C357.824 226.228 364.574 222.192 369.799 219.014C375.024 215.836 380.874 212.337 382.799 211.237C384.724 210.138 388.324 208.113 390.799 206.737C393.274 205.361 396.493 203.399 397.953 202.378C399.413 201.357 400.885 200.521 401.223 200.521C401.562 200.521 403.742 199.315 406.069 197.841C408.395 196.367 418.356 190.292 428.203 184.341C438.05 178.39 446.301 173.521 446.539 173.521C446.777 173.521 448.846 172.229 451.136 170.65C453.425 169.072 458.449 165.751 462.299 163.271C466.149 160.791 471.189 157.81 473.499 156.647C475.81 155.483 479.635 153.892 481.999 153.111C484.364 152.33 487.199 151.455 488.299 151.168C489.399 150.88 492.76 150.858 495.767 151.117C498.774 151.377 503.175 152.248 505.547 153.054ZM200.799 373.194C206.024 376.286 217.949 383.419 227.299 389.044C236.649 394.67 250.149 402.85 257.299 407.221C264.449 411.593 281.324 421.854 294.799 430.024C308.274 438.193 326.499 449.234 335.299 454.559C344.099 459.883 358.949 468.963 368.299 474.737C377.649 480.51 392.274 489.489 400.799 494.689C409.324 499.89 424.624 509.013 434.799 514.963C444.974 520.913 455.622 527.276 458.462 529.103C461.301 530.93 464.901 534.099 466.462 536.145L469.299 539.865L469.799 715.193L470.299 890.521H469.108C468.453 890.521 467.639 890.071 467.299 889.521C466.959 888.971 465.073 888.521 463.108 888.521C461.143 888.521 457.907 887.523 455.917 886.303C453.927 885.083 451.399 883.229 450.299 882.183C449.199 881.137 445.35 878.423 441.745 876.151C438.14 873.88 434.315 871.487 433.245 870.835C432.175 870.182 427.747 867.482 423.405 864.835C419.064 862.187 414.779 859.571 413.883 859.021C412.987 858.471 407.54 855.135 401.777 851.608C396.014 848.081 384.324 840.906 375.799 835.664C367.274 830.421 355.243 822.845 349.064 818.827C342.884 814.809 337.606 811.521 337.333 811.521C337.061 811.521 334.414 809.971 331.453 808.076C328.491 806.181 324.094 803.522 321.683 802.166C319.272 800.81 313.249 797.216 308.299 794.18C303.349 791.144 294.574 785.83 288.799 782.371C283.024 778.912 277.399 775.586 276.299 774.979C275.199 774.372 270.474 771.466 265.799 768.522C261.124 765.577 251.674 759.817 244.799 755.722C237.924 751.626 230.949 747.499 229.299 746.552C227.649 745.604 220.224 741.062 212.799 736.459C204.379 731.238 197.135 725.869 193.549 722.191C190.386 718.947 187.799 715.775 187.799 715.142C187.799 714.509 186.954 712.416 185.922 710.49C184.786 708.37 183.585 702.849 182.879 696.504C182.048 689.037 181.683 643.73 181.61 539.021C181.553 458.171 181.831 386.846 182.227 380.521C182.624 374.196 183.422 367.776 184.002 366.254L185.056 363.487L188.177 365.53C189.894 366.653 195.574 370.102 200.799 373.194ZM808.275 370.771C808.631 374.758 808.762 450.021 808.567 538.021L808.212 698.021L806.597 703.265C805.71 706.149 803.991 710.559 802.778 713.065C801.565 715.57 798.486 719.745 795.936 722.342C793.386 724.939 788.149 729.114 784.299 731.618C780.449 734.123 765.824 743.098 751.799 751.563C737.774 760.029 713.474 774.706 697.799 784.179C682.124 793.652 665.699 803.522 661.299 806.112C656.899 808.703 640.249 818.92 624.299 828.818C608.349 838.715 591.699 848.996 587.299 851.664C582.899 854.332 573.095 860.228 565.512 864.768C557.929 869.307 546.206 876.621 539.46 881.021C532.714 885.421 526.037 889.548 524.622 890.193L522.049 891.364L520.924 888.896C520.105 887.097 519.799 839.335 519.799 713.06V539.692L523.549 535.642C525.612 533.414 533.374 527.927 540.799 523.447C548.224 518.968 559.924 511.902 566.799 507.745C573.674 503.588 583.445 497.562 588.513 494.354C593.581 491.146 597.964 488.521 598.253 488.521C598.543 488.521 601.667 486.609 605.196 484.271C608.725 481.933 613.792 478.687 616.456 477.057C619.119 475.427 624.449 472.35 628.299 470.218C632.149 468.087 635.974 465.775 636.799 465.08C637.624 464.386 640.324 462.739 642.799 461.42C645.274 460.1 647.524 458.746 647.799 458.409C648.074 458.072 652.697 455.147 658.072 451.909C663.447 448.671 669.297 445.165 671.072 444.119C672.847 443.073 677.899 440.091 682.299 437.492C686.699 434.892 691.874 431.867 693.799 430.768C695.724 429.67 707.373 422.64 719.686 415.146C731.998 407.652 742.259 401.521 742.488 401.521C742.717 401.521 746.818 398.99 751.601 395.897C756.385 392.804 763.224 388.409 766.799 386.132C770.374 383.854 774.649 381.333 776.299 380.53C777.949 379.727 782.449 376.771 786.299 373.963C790.149 371.154 794.412 368.105 795.772 367.188C797.131 366.271 799.692 365.521 801.462 365.521C803.233 365.521 804.959 365.071 805.299 364.521C805.639 363.971 806.302 363.521 806.773 363.521C807.243 363.521 807.919 366.784 808.275 370.771Z" fill="#2563EB"/>
</svg>
