<svg width="141" height="46" viewBox="0 0 141 46" fill="none" xmlns="http://www.w3.org/2000/svg">
<g>
<path d="M60.8797 17.0664H56.833C56.5561 17.0664 56.3206 17.2676 56.2774 17.541L54.6407 27.9178C54.6082 28.1225 54.7668 28.3072 54.9744 28.3072H56.9064C57.1833 28.3072 57.4188 28.106 57.462 27.832L57.9034 25.0332C57.946 24.7593 58.1821 24.5581 58.4584 24.5581H59.7395C62.4052 24.5581 63.9436 23.2681 64.3454 20.7119C64.5265 19.5936 64.3531 18.7149 63.8294 18.0995C63.2543 17.4238 62.2342 17.0664 60.8797 17.0664ZM61.3466 20.8563C61.1253 22.3084 60.0158 22.3084 58.9431 22.3084H58.3324L58.7608 19.5966C58.7863 19.4327 58.9283 19.312 59.0939 19.312H59.3738C60.1046 19.312 60.7939 19.312 61.1501 19.7285C61.3626 19.977 61.4277 20.3463 61.3466 20.8563Z" fill="#253B80"/>
<path d="M72.9766 20.8092H71.0388C70.8737 20.8092 70.7311 20.9299 70.7056 21.0938L70.6198 21.6358L70.4843 21.4394C70.0648 20.8305 69.1293 20.627 68.1956 20.627C66.0542 20.627 64.2252 22.2488 63.869 24.524C63.6838 25.6589 63.9471 26.7441 64.5909 27.5009C65.1814 28.1967 66.0264 28.4867 67.0317 28.4867C68.7571 28.4867 69.7139 27.3772 69.7139 27.3772L69.6275 27.9157C69.595 28.1216 69.7536 28.3062 69.9601 28.3062H71.7056C71.9831 28.3062 72.2175 28.105 72.2613 27.831L73.3086 21.1985C73.3417 20.9944 73.1837 20.8092 72.9766 20.8092ZM70.2755 24.5808C70.0885 25.6879 69.2098 26.4311 68.0891 26.4311C67.5264 26.4311 67.0767 26.2506 66.7879 25.9086C66.5015 25.5689 66.3927 25.0855 66.4838 24.547C66.6583 23.4494 67.5518 22.682 68.6554 22.682C69.2057 22.682 69.653 22.8648 69.9477 23.2098C70.2429 23.5583 70.3601 24.0447 70.2755 24.5808Z" fill="#253B80"/>
<path d="M83.2965 20.8086H81.3492C81.1634 20.8086 80.9889 20.9009 80.8835 21.0553L78.1977 25.0115L77.0593 21.2098C76.9877 20.9719 76.7682 20.8086 76.5197 20.8086H74.6061C74.3735 20.8086 74.212 21.0358 74.2859 21.2547L76.4309 27.5494L74.4143 30.3961C74.2558 30.6204 74.4155 30.9286 74.6895 30.9286H76.6344C76.8191 30.9286 76.9918 30.8387 77.0966 30.6872L83.5735 21.3382C83.7285 21.1145 83.5693 20.8086 83.2965 20.8086Z" fill="#253B80"/>
<path d="M89.7452 17.0664H85.6979C85.4216 17.0664 85.1861 17.2676 85.1429 17.541L83.5062 27.9178C83.4737 28.1225 83.6322 28.3072 83.8387 28.3072H85.9157C86.1086 28.3072 86.2736 28.1663 86.3038 27.9746L86.7683 25.0332C86.8109 24.7593 87.047 24.5581 87.3233 24.5581H88.6038C91.2701 24.5581 92.8079 23.2681 93.2103 20.7119C93.3919 19.5936 93.2174 18.7149 92.6937 18.0995C92.1192 17.4238 91.0996 17.0664 89.7452 17.0664ZM90.2121 20.8563C89.9914 22.3084 88.8819 22.3084 87.8085 22.3084H87.1985L87.6275 19.5966C87.6529 19.4327 87.7937 19.312 87.96 19.312H88.2399C88.9701 19.312 89.66 19.312 90.0162 19.7285C90.2286 19.977 90.2931 20.3463 90.2121 20.8563Z" fill="#179BD7"/>
<path d="M101.839 20.8092H99.9024C99.7362 20.8092 99.5947 20.9299 99.5699 21.0938L99.4841 21.6358L99.348 21.4394C98.9285 20.8305 97.9936 20.627 97.0598 20.627C94.9184 20.627 93.09 22.2488 92.7338 24.524C92.5492 25.6589 92.8113 26.7441 93.4551 27.5009C94.0468 28.1967 94.8906 28.4867 95.8959 28.4867C97.6214 28.4867 98.5782 27.3772 98.5782 27.3772L98.4918 27.9157C98.4592 28.1216 98.6178 28.3062 98.8255 28.3062H100.57C100.847 28.3062 101.082 28.105 101.125 27.831L102.173 21.1985C102.205 20.9944 102.047 20.8092 101.839 20.8092ZM99.1379 24.5808C98.9521 25.6879 98.0723 26.4311 96.9516 26.4311C96.39 26.4311 95.9391 26.2506 95.6504 25.9086C95.364 25.5689 95.2563 25.0855 95.3462 24.547C95.522 23.4494 96.4143 22.682 97.5178 22.682C98.0681 22.682 98.5155 22.8648 98.8101 23.2098C99.1066 23.5583 99.2237 24.0447 99.1379 24.5808Z" fill="#179BD7"/>
<path d="M104.124 17.3497L102.463 27.9165C102.43 28.1212 102.589 28.3058 102.796 28.3058H104.465C104.743 28.3058 104.978 28.1046 105.021 27.8307L106.659 17.4544C106.691 17.2497 106.533 17.0645 106.326 17.0645H104.456C104.291 17.065 104.149 17.1858 104.124 17.3497Z" fill="#179BD7"/>
<path d="M37.8351 30.3226L38.1446 28.3569L37.4553 28.3409H34.1636L36.4511 13.8363C36.4582 13.7925 36.4813 13.7517 36.515 13.7227C36.5488 13.6937 36.592 13.6777 36.6369 13.6777H42.1872C44.0298 13.6777 45.3014 14.0612 45.9653 14.818C46.2765 15.173 46.4747 15.544 46.5706 15.9523C46.6712 16.3807 46.673 16.8925 46.5747 17.5168L46.5676 17.5623V17.9623L46.8789 18.1387C47.141 18.2777 47.3493 18.4369 47.509 18.6191C47.7753 18.9227 47.9475 19.3085 48.0203 19.7659C48.0954 20.2363 48.0706 20.796 47.9475 21.4298C47.8055 22.1587 47.5759 22.7936 47.2659 23.3132C46.9806 23.7919 46.6173 24.1889 46.186 24.4966C45.7741 24.7889 45.2848 25.0108 44.7315 25.1528C44.1955 25.2924 43.5842 25.3629 42.9138 25.3629H42.4819C42.173 25.3629 41.873 25.4741 41.6375 25.6735C41.4014 25.8771 41.2452 26.1552 41.1973 26.4593L41.1647 26.6362L40.618 30.1007L40.5931 30.2279C40.5866 30.2682 40.5754 30.2883 40.5588 30.3019C40.544 30.3143 40.5227 30.3226 40.502 30.3226H37.8351Z" fill="#253B80"/>
<path d="M47.1743 17.6094C47.1577 17.7153 47.1388 17.8236 47.1175 17.9348C46.3856 21.6928 43.8814 22.991 40.6832 22.991H39.0548C38.6637 22.991 38.3341 23.275 38.2732 23.6608L37.4395 28.9484L37.2034 30.4472C37.1637 30.7004 37.359 30.9288 37.6146 30.9288H40.5028C40.8448 30.9288 41.1353 30.6803 41.1891 30.343L41.2175 30.1963L41.7613 26.7454L41.7962 26.5561C41.8495 26.2176 42.1406 25.9691 42.4826 25.9691H42.9146C45.7128 25.9691 47.9033 24.833 48.5435 21.5454C48.811 20.1721 48.6725 19.0253 47.9648 18.2188C47.7506 17.9756 47.485 17.7739 47.1743 17.6094Z" fill="#179BD7"/>
<path d="M46.4084 17.3037C46.2966 17.2712 46.1812 17.2416 46.0628 17.215C45.9439 17.1889 45.822 17.1659 45.6966 17.1457C45.2575 17.0747 44.7765 17.041 44.2611 17.041H39.9108C39.8037 17.041 39.7019 17.0653 39.6108 17.1091C39.4102 17.2055 39.2611 17.3955 39.225 17.628L38.2996 23.4895L38.2729 23.6605C38.3339 23.2747 38.6635 22.9907 39.0546 22.9907H40.683C43.8812 22.9907 46.3853 21.6919 47.1173 17.9345C47.1392 17.8233 47.1575 17.715 47.1741 17.6091C46.9889 17.5108 46.7883 17.4268 46.5723 17.3552C46.519 17.3375 46.464 17.3203 46.4084 17.3037Z" fill="#222D65"/>
<path d="M39.2256 17.6279C39.2617 17.3953 39.4108 17.2054 39.6114 17.1095C39.7031 17.0657 39.8043 17.0415 39.9114 17.0415H44.2616C44.777 17.0415 45.2581 17.0752 45.6971 17.1462C45.8226 17.1663 45.9445 17.1894 46.0634 17.2154C46.1817 17.2421 46.2971 17.2716 46.409 17.3042C46.4646 17.3208 46.5196 17.3379 46.5735 17.3551C46.7894 17.4267 46.99 17.5113 47.1752 17.6089C47.393 16.2202 47.1735 15.2746 46.4226 14.4184C45.5948 13.4758 44.1007 13.0723 42.1889 13.0723H36.6386C36.2481 13.0723 35.9149 13.3563 35.8546 13.7427L33.5428 28.3964C33.4972 28.6864 33.7209 28.9479 34.0132 28.9479H37.4398L38.3001 23.4894L39.2256 17.6279Z" fill="#253B80"/>
</g>
</svg>
